<svg width="173" height="51" viewBox="0 0 173 51" fill="none" xmlns="http://www.w3.org/2000/svg">
<path d="M27.3992 0.178711V13.0935H34.8655C35.2256 11.9443 36.2983 11.1098 37.5671 11.1098C39.1306 11.1098 40.3979 12.3771 40.3979 13.9406C40.3979 15.5041 39.1306 16.7714 37.5671 16.7714C36.2991 16.7714 35.2256 15.9369 34.8655 14.7877H27.3992V24.3313H39.1603C39.5204 23.182 40.5931 22.3476 41.8619 22.3476C43.4254 22.3476 44.6919 23.6148 44.6919 25.1783C44.6919 26.7418 43.4246 28.0091 41.8619 28.0091C40.5931 28.0091 39.5204 27.1747 39.1603 26.0254H27.3992V35.569H34.8655C35.2256 34.419 36.2983 33.5853 37.5671 33.5853C39.1306 33.5853 40.3979 34.8526 40.3979 36.4161C40.3979 37.9796 39.1306 39.2468 37.5671 39.2468C36.2991 39.2468 35.2256 38.4124 34.8655 37.2631H27.3992V50.1787C40.5219 49.3888 50.9214 38.5015 50.9214 25.1806C50.9214 11.8559 40.5219 0.967884 27.3992 0.178711Z" fill="#FFD268"/>
<path d="M0.82373 25.1769C0.82373 38.4978 11.2233 49.3851 24.346 50.175V0.178711C11.2233 0.967884 0.82373 11.8559 0.82373 25.1769ZM21.3764 13.0935H16.8796C16.5196 11.9435 15.4468 11.1091 14.178 11.1091C12.6145 11.1091 11.3473 12.3764 11.3473 13.9398C11.3473 15.5033 12.6145 16.7706 14.178 16.7706C15.4461 16.7706 16.5196 15.9362 16.8796 14.7869H21.3764V24.3305H12.5849C12.2248 23.1805 11.152 22.3461 9.88326 22.3461C8.3205 22.3461 7.05322 23.6134 7.05322 25.1769C7.05322 26.7403 8.3205 28.0076 9.88326 28.0076C11.1513 28.0076 12.2248 27.1732 12.5849 26.0239H21.3764V35.5675H16.8796C16.5196 34.4175 15.4468 33.5838 14.178 33.5838C12.6145 33.5838 11.3473 34.8511 11.3473 36.4146C11.3473 37.9781 12.6145 39.2453 14.178 39.2453C15.4461 39.2453 16.5196 38.4109 16.8796 37.2617H21.3764V46.7948C11.2975 44.7094 3.79334 35.7583 3.79334 25.1783C3.79334 14.5984 11.2968 5.64722 21.3764 3.56182V13.0935Z" fill="#FFD268"/>
<path d="M63.0219 34.1787V14.3547H71.0019C71.9912 14.3547 72.9339 14.4574 73.8299 14.6627C74.7445 14.8494 75.5659 15.176 76.2939 15.6427C77.0219 16.1094 77.5912 16.7627 78.0019 17.6027C78.4312 18.424 78.6459 19.4787 78.6459 20.7667C78.6459 21.7187 78.4872 22.5774 78.1699 23.3427C77.8525 24.108 77.3859 24.7614 76.7699 25.3027C76.1539 25.844 75.4165 26.264 74.5579 26.5627L78.9539 34.1787H74.4459L70.5819 27.2067H67.0259V34.1787H63.0219ZM67.0259 23.6507H70.7219C71.3005 23.6507 71.8232 23.604 72.2899 23.5107C72.7752 23.3987 73.1859 23.2307 73.5219 23.0067C73.8765 22.7827 74.1472 22.484 74.3339 22.1107C74.5392 21.7374 74.6419 21.28 74.6419 20.7387C74.6605 20.048 74.5112 19.516 74.1939 19.1427C73.8952 18.7507 73.4659 18.48 72.9059 18.3307C72.3645 18.1627 71.7205 18.0787 70.9739 18.0787H67.0259V23.6507ZM88.2411 34.3747C86.6918 34.3747 85.3758 34.0667 84.2931 33.4507C83.2105 32.8347 82.3798 31.9667 81.8011 30.8467C81.2225 29.708 80.9331 28.3827 80.9331 26.8707C80.9331 25.34 81.2318 24.0054 81.8291 22.8667C82.4265 21.7094 83.2665 20.804 84.3491 20.1507C85.4505 19.4974 86.7478 19.1707 88.2411 19.1707C89.3611 19.1707 90.3411 19.3574 91.1811 19.7307C92.0398 20.104 92.7585 20.6267 93.3371 21.2987C93.9345 21.9707 94.3731 22.7547 94.6531 23.6507C94.9518 24.528 95.0918 25.48 95.0731 26.5067C95.0731 26.768 95.0638 27.02 95.0451 27.2627C95.0265 27.5054 94.9891 27.748 94.9331 27.9907H84.8251C84.8811 28.5507 85.0398 29.064 85.3011 29.5307C85.5625 29.9974 85.9265 30.3707 86.3931 30.6507C86.8785 30.912 87.4758 31.0427 88.1851 31.0427C88.6518 31.0427 89.0811 30.996 89.4731 30.9027C89.8651 30.7907 90.2011 30.6227 90.4811 30.3987C90.7611 30.1747 90.9571 29.9134 91.0691 29.6147H94.9331C94.6905 30.716 94.2331 31.6214 93.5611 32.3307C92.9078 33.04 92.1145 33.5627 91.1811 33.8987C90.2478 34.216 89.2678 34.3747 88.2411 34.3747ZM84.9091 25.2467H91.3211C91.3025 24.7427 91.1718 24.276 90.9291 23.8467C90.7051 23.3987 90.3598 23.044 89.8931 22.7827C89.4451 22.5027 88.8665 22.3627 88.1571 22.3627C87.4478 22.3627 86.8505 22.5027 86.3651 22.7827C85.8985 23.0627 85.5438 23.4267 85.3011 23.8747C85.0771 24.304 84.9465 24.7614 84.9091 25.2467ZM97.5986 39.6947V19.4227H101.267L101.463 21.2707C102.06 20.5427 102.741 20.0107 103.507 19.6747C104.291 19.3387 105.149 19.1707 106.083 19.1707C107.539 19.1707 108.743 19.5067 109.695 20.1787C110.647 20.8507 111.356 21.7654 111.823 22.9227C112.308 24.0614 112.551 25.34 112.551 26.7587C112.551 28.2147 112.299 29.5214 111.795 30.6787C111.309 31.8174 110.572 32.7227 109.583 33.3947C108.593 34.048 107.361 34.3747 105.887 34.3747C105.252 34.3747 104.655 34.3 104.095 34.1507C103.535 34.0014 103.04 33.8054 102.611 33.5627C102.181 33.3014 101.817 33.012 101.519 32.6947V39.6947H97.5986ZM105.215 30.8467C106.092 30.8467 106.783 30.6507 107.287 30.2587C107.791 29.8667 108.145 29.372 108.351 28.7747C108.556 28.1587 108.659 27.524 108.659 26.8707C108.659 26.1614 108.547 25.4894 108.323 24.8547C108.099 24.22 107.725 23.716 107.203 23.3427C106.699 22.9507 106.008 22.7547 105.131 22.7547C104.347 22.7547 103.684 22.9507 103.143 23.3427C102.601 23.716 102.191 24.2107 101.911 24.8267C101.631 25.4427 101.491 26.1054 101.491 26.8147C101.491 27.524 101.621 28.1867 101.883 28.8027C102.163 29.4187 102.573 29.9134 103.115 30.2867C103.675 30.66 104.375 30.8467 105.215 30.8467ZM119.747 34.3747C119.075 34.3747 118.422 34.2907 117.787 34.1227C117.171 33.936 116.621 33.656 116.135 33.2827C115.65 32.9094 115.267 32.4427 114.987 31.8827C114.707 31.3227 114.567 30.6694 114.567 29.9227C114.567 28.9147 114.773 28.112 115.183 27.5147C115.594 26.8987 116.145 26.432 116.835 26.1147C117.526 25.7974 118.319 25.5827 119.215 25.4707C120.13 25.3587 121.073 25.3027 122.043 25.3027H124.171C124.171 24.7614 124.069 24.2854 123.863 23.8747C123.677 23.4454 123.387 23.1187 122.995 22.8947C122.603 22.652 122.099 22.5307 121.483 22.5307C121.091 22.5307 120.709 22.5867 120.335 22.6987C119.981 22.792 119.682 22.932 119.439 23.1187C119.197 23.3054 119.038 23.548 118.963 23.8467H114.987C115.099 23.0254 115.361 22.3254 115.771 21.7467C116.182 21.1494 116.695 20.664 117.311 20.2907C117.927 19.9174 118.599 19.6467 119.327 19.4787C120.074 19.292 120.839 19.1987 121.623 19.1987C123.77 19.1987 125.357 19.8147 126.383 21.0467C127.41 22.26 127.923 23.9867 127.923 26.2267V34.1787H124.395L124.339 32.2747C123.873 32.928 123.341 33.404 122.743 33.7027C122.165 34.0014 121.605 34.188 121.063 34.2627C120.522 34.3374 120.083 34.3747 119.747 34.3747ZM120.643 31.2667C121.297 31.2667 121.894 31.136 122.435 30.8747C122.977 30.6134 123.406 30.2587 123.723 29.8107C124.041 29.3627 124.199 28.8587 124.199 28.2987V27.9347H121.511C121.119 27.9347 120.737 27.9534 120.363 27.9907C120.009 28.028 119.682 28.1027 119.383 28.2147C119.103 28.308 118.879 28.4667 118.711 28.6907C118.543 28.9147 118.459 29.2134 118.459 29.5867C118.459 29.96 118.553 30.2774 118.739 30.5387C118.945 30.7814 119.215 30.968 119.551 31.0987C119.887 31.2107 120.251 31.2667 120.643 31.2667ZM130.985 34.1787V19.4227H134.905V34.1787H130.985ZM132.945 17.9387C132.217 17.9387 131.629 17.724 131.181 17.2947C130.733 16.8467 130.509 16.2774 130.509 15.5867C130.509 14.8587 130.743 14.2707 131.209 13.8227C131.676 13.3747 132.264 13.1507 132.973 13.1507C133.627 13.1507 134.187 13.3747 134.653 13.8227C135.139 14.252 135.381 14.8307 135.381 15.5587C135.381 16.268 135.148 16.8467 134.681 17.2947C134.233 17.724 133.655 17.9387 132.945 17.9387ZM138.013 34.1787V19.4227H141.541L141.793 21.1867C142.166 20.6267 142.586 20.2067 143.053 19.9267C143.519 19.628 144.005 19.432 144.509 19.3387C145.013 19.2267 145.526 19.1707 146.049 19.1707C146.291 19.1707 146.515 19.18 146.721 19.1987C146.926 19.1987 147.075 19.1987 147.169 19.1987V22.9787H146.245C145.367 22.9787 144.602 23.128 143.949 23.4267C143.295 23.7254 142.791 24.192 142.437 24.8267C142.101 25.4614 141.933 26.2734 141.933 27.2627V34.1787H138.013ZM149.005 34.1787V19.4227H152.925V34.1787H149.005ZM150.965 17.9387C150.237 17.9387 149.649 17.724 149.201 17.2947C148.753 16.8467 148.529 16.2774 148.529 15.5867C148.529 14.8587 148.762 14.2707 149.229 13.8227C149.696 13.3747 150.284 13.1507 150.993 13.1507C151.646 13.1507 152.206 13.3747 152.673 13.8227C153.158 14.252 153.401 14.8307 153.401 15.5587C153.401 16.268 153.168 16.8467 152.701 17.2947C152.253 17.724 151.674 17.9387 150.965 17.9387ZM162.724 34.1787C161.492 34.1787 160.456 34.0294 159.616 33.7307C158.795 33.432 158.17 32.928 157.74 32.2187C157.33 31.4907 157.124 30.5014 157.124 29.2507V22.9227H154.94V19.4227H157.124V15.4747H161.044V19.4227H164.264V22.9227H161.044V28.6907C161.044 29.3067 161.156 29.792 161.38 30.1467C161.604 30.5014 162.108 30.6787 162.892 30.6787H164.124V34.1787H162.724Z" fill="white"/>
<path d="M168.694 34.5427C168.022 34.5427 167.453 34.3374 166.986 33.9267C166.519 33.516 166.286 32.928 166.286 32.1627C166.286 31.3787 166.519 30.7627 166.986 30.3147C167.471 29.8667 168.041 29.6427 168.694 29.6427C169.347 29.6427 169.907 29.8667 170.374 30.3147C170.841 30.744 171.074 31.3507 171.074 32.1347C171.074 32.9187 170.841 33.516 170.374 33.9267C169.907 34.3374 169.347 34.5427 168.694 34.5427Z" fill="#FFD268"/>
</svg>
