<svg width="30" height="31" viewBox="0 0 30 31" fill="none" xmlns="http://www.w3.org/2000/svg">
<g clip-path="url(#clip0_143_11419)">
<path d="M16.0073 15.3572C15.6895 15.4952 15.3467 15.5664 15.0002 15.5664C14.6537 15.5664 14.3109 15.4952 13.993 15.3572L1.77873 9.70004C1.58039 9.6 1.41371 9.44687 1.29726 9.2577C1.1808 9.06853 1.11914 8.85075 1.11914 8.62861C1.11914 8.40647 1.1808 8.18869 1.29726 7.99952C1.41371 7.81035 1.58039 7.65722 1.77873 7.55718L13.993 1.85718C14.3109 1.71917 14.6537 1.64795 15.0002 1.64795C15.3467 1.64795 15.6895 1.71917 16.0073 1.85718L28.2216 7.51432C28.4199 7.61436 28.5866 7.76749 28.7031 7.95666C28.8195 8.14583 28.8812 8.36361 28.8812 8.58575C28.8812 8.80789 28.8195 9.02567 28.7031 9.21484C28.5866 9.40401 28.4199 9.55714 28.2216 9.65718L16.0073 15.3572Z" stroke="#FFD268" stroke-width="1.5" stroke-linecap="round" stroke-linejoin="round"/>
<path d="M28.9287 16.3213L15.8572 22.3427C15.5781 22.4701 15.2748 22.536 14.968 22.536C14.6611 22.536 14.3579 22.4701 14.0787 22.3427L1.07153 16.3213" stroke="#FFD268" stroke-width="1.5" stroke-linecap="round" stroke-linejoin="round"/>
<path d="M28.9287 23.2856L15.8572 29.3071C15.5781 29.4344 15.2748 29.5003 14.968 29.5003C14.6611 29.5003 14.3579 29.4344 14.0787 29.3071L1.07153 23.2856" stroke="#FFD268" stroke-width="1.5" stroke-linecap="round" stroke-linejoin="round"/>
</g>
<defs>
<clipPath id="clip0_143_11419">
<rect width="30" height="30" fill="white" transform="translate(0 0.571289)"/>
</clipPath>
</defs>
</svg>
