<svg width="30" height="31" viewBox="0 0 30 31" fill="none" xmlns="http://www.w3.org/2000/svg">
<g clip-path="url(#clip0_143_11519)">
<path d="M5.35721 18.7861H24.6429C25.2112 18.7861 25.7563 19.0119 26.1582 19.4138C26.56 19.8156 26.7858 20.3607 26.7858 20.929V29.5004H3.21436V20.929C3.21436 20.3607 3.44012 19.8156 3.84198 19.4138C4.24385 19.0119 4.78889 18.7861 5.35721 18.7861V18.7861Z" stroke="#FFD268" stroke-width="1.5" stroke-linecap="round" stroke-linejoin="round"/>
<path d="M3.21415 20.9289C2.64583 20.9289 2.10078 20.7031 1.69892 20.3012C1.29705 19.8994 1.07129 19.3543 1.07129 18.786V14.5003C1.07129 13.932 1.29705 13.3869 1.69892 12.9851C2.10078 12.5832 2.64583 12.3574 3.21415 12.3574H26.7856C27.3539 12.3574 27.8989 12.5832 28.3008 12.9851C28.7027 13.3869 28.9284 13.932 28.9284 14.5003V18.786C28.9284 19.3543 28.7027 19.8994 28.3008 20.3012C27.8989 20.7031 27.3539 20.9289 26.7856 20.9289" stroke="#FFD268" stroke-width="1.5" stroke-linecap="round" stroke-linejoin="round"/>
<path d="M23.5711 1.64307H6.42822V12.3574H23.5711V1.64307Z" stroke="#FFD268" stroke-width="1.5" stroke-linecap="round" stroke-linejoin="round"/>
<path d="M8.57129 24.1431H21.4284" stroke="#FFD268" stroke-width="1.5" stroke-linecap="round" stroke-linejoin="round"/>
</g>
<defs>
<clipPath id="clip0_143_11519">
<rect width="30" height="30" fill="white" transform="translate(0 0.619141)"/>
</clipPath>
</defs>
</svg>
