<svg width="31" height="31" viewBox="0 0 31 31" fill="none" xmlns="http://www.w3.org/2000/svg">
<g clip-path="url(#clip0_134_579)">
<path d="M16.5989 15.3296C16.281 15.4676 15.9382 15.5388 15.5917 15.5388C15.2452 15.5388 14.9024 15.4676 14.5846 15.3296L2.37029 9.67245C2.17195 9.57241 2.00527 9.41928 1.88881 9.23011C1.77235 9.04094 1.71069 8.82316 1.71069 8.60102C1.71069 8.37888 1.77235 8.1611 1.88881 7.97193C2.00527 7.78276 2.17195 7.62963 2.37029 7.52959L14.5846 1.82959C14.9024 1.69158 15.2452 1.62036 15.5917 1.62036C15.9382 1.62036 16.281 1.69158 16.5989 1.82959L28.8131 7.48674C29.0115 7.58677 29.1782 7.7399 29.2946 7.92907C29.4111 8.11824 29.4727 8.33602 29.4727 8.55816C29.4727 8.78031 29.4111 8.99809 29.2946 9.18725C29.1782 9.37642 29.0115 9.52955 28.8131 9.62959L16.5989 15.3296Z" stroke="#081D0D" stroke-width="1.5" stroke-linecap="round" stroke-linejoin="round"/>
<path d="M29.5202 16.2939L16.4488 22.3154C16.1696 22.4427 15.8664 22.5086 15.5595 22.5086C15.2527 22.5086 14.9494 22.4427 14.6702 22.3154L1.66309 16.2939" stroke="#081D0D" stroke-width="1.5" stroke-linecap="round" stroke-linejoin="round"/>
<path d="M29.5202 23.2581L16.4488 29.2795C16.1696 29.4068 15.8664 29.4727 15.5595 29.4727C15.2527 29.4727 14.9494 29.4068 14.6702 29.2795L1.66309 23.2581" stroke="#081D0D" stroke-width="1.5" stroke-linecap="round" stroke-linejoin="round"/>
</g>
<defs>
<clipPath id="clip0_134_579">
<rect width="30" height="30" fill="white" transform="translate(0.591553 0.543945)"/>
</clipPath>
</defs>
</svg>
