<svg width="30" height="31" viewBox="0 0 30 31" fill="none" xmlns="http://www.w3.org/2000/svg">
<path d="M9.64272 28.4285C14.3766 28.4285 18.2141 24.5909 18.2141 19.8571C18.2141 15.1232 14.3766 11.2856 9.64272 11.2856C4.90885 11.2856 1.07129 15.1232 1.07129 19.8571C1.07129 24.5909 4.90885 28.4285 9.64272 28.4285Z" stroke="#FFD268" stroke-width="1.5" stroke-linecap="round" stroke-linejoin="round"/>
<path d="M20.3571 28.4285C25.0909 28.4285 28.9285 24.5909 28.9285 19.8571C28.9285 15.1232 25.0909 11.2856 20.3571 11.2856C15.6232 11.2856 11.7856 15.1232 11.7856 19.8571C11.7856 24.5909 15.6232 28.4285 20.3571 28.4285Z" stroke="#FFD268" stroke-width="1.5" stroke-linecap="round" stroke-linejoin="round"/>
<path d="M14.9997 19.8572C19.7335 19.8572 23.5711 16.0197 23.5711 11.2858C23.5711 6.55191 19.7335 2.71436 14.9997 2.71436C10.2658 2.71436 6.42822 6.55191 6.42822 11.2858C6.42822 16.0197 10.2658 19.8572 14.9997 19.8572Z" stroke="#FFD268" stroke-width="1.5" stroke-linecap="round" stroke-linejoin="round"/>
</svg>
