<svg width="31" height="31" viewBox="0 0 31 31" fill="none" xmlns="http://www.w3.org/2000/svg">
<g clip-path="url(#clip0_134_630)">
<path d="M27.3774 1.61548H3.80594C2.62248 1.61548 1.66309 2.57487 1.66309 3.75834V24.1155C1.66309 25.2989 2.62248 26.2583 3.80594 26.2583H27.3774C28.5608 26.2583 29.5202 25.2989 29.5202 24.1155V3.75834C29.5202 2.57487 28.5608 1.61548 27.3774 1.61548Z" stroke="#081D0D" stroke-width="1.5" stroke-linecap="round" stroke-linejoin="round"/>
<path d="M18.8062 17.687C20.8772 17.687 22.5562 16.0081 22.5562 13.937C22.5562 11.8659 20.8772 10.187 18.8062 10.187C16.7351 10.187 15.0562 11.8659 15.0562 13.937C15.0562 16.0081 16.7351 17.687 18.8062 17.687Z" stroke="#081D0D" stroke-width="1.5" stroke-linecap="round" stroke-linejoin="round"/>
<path d="M18.8062 7.5083V10.1869" stroke="#081D0D" stroke-width="1.5" stroke-linecap="round" stroke-linejoin="round"/>
<path d="M18.8062 17.687V20.3656" stroke="#081D0D" stroke-width="1.5" stroke-linecap="round" stroke-linejoin="round"/>
<path d="M25.2347 13.937H22.5562" stroke="#081D0D" stroke-width="1.5" stroke-linecap="round" stroke-linejoin="round"/>
<path d="M15.056 13.937H12.3774" stroke="#081D0D" stroke-width="1.5" stroke-linecap="round" stroke-linejoin="round"/>
<path d="M23.3486 9.39404L21.4629 11.2798" stroke="#081D0D" stroke-width="1.5" stroke-linecap="round" stroke-linejoin="round"/>
<path d="M16.1489 16.594L14.2632 18.4797" stroke="#081D0D" stroke-width="1.5" stroke-linecap="round" stroke-linejoin="round"/>
<path d="M23.3486 18.4797L21.4629 16.594" stroke="#081D0D" stroke-width="1.5" stroke-linecap="round" stroke-linejoin="round"/>
<path d="M16.1489 11.2798L14.2632 9.39404" stroke="#081D0D" stroke-width="1.5" stroke-linecap="round" stroke-linejoin="round"/>
<path d="M7.02002 10.187V17.687" stroke="#081D0D" stroke-width="1.5" stroke-linecap="round" stroke-linejoin="round"/>
<path d="M4.87744 26.2583V29.4726" stroke="#081D0D" stroke-width="1.5" stroke-linecap="round" stroke-linejoin="round"/>
<path d="M25.2344 26.2583V29.4726" stroke="#081D0D" stroke-width="1.5" stroke-linecap="round" stroke-linejoin="round"/>
</g>
<defs>
<clipPath id="clip0_134_630">
<rect width="30" height="30" fill="white" transform="translate(0.591797 0.543945)"/>
</clipPath>
</defs>
</svg>
