<svg width="30" height="31" viewBox="0 0 30 31" fill="none" xmlns="http://www.w3.org/2000/svg">
<g clip-path="url(#clip0_143_11510)">
<path d="M11.207 5.39258L12.1284 3.01401C12.2838 2.61129 12.5572 2.26489 12.9128 2.02018C13.2684 1.77547 13.6896 1.64385 14.1213 1.64258H15.8784C16.3101 1.64385 16.7313 1.77547 17.0869 2.02018C17.4425 2.26489 17.7159 2.61129 17.8713 3.01401L18.7927 5.39258L21.9213 7.19258L24.4499 6.80686C24.8709 6.74971 25.2994 6.81902 25.681 7.00598C26.0625 7.19295 26.3799 7.48912 26.5927 7.85686L27.4499 9.35686C27.6695 9.73047 27.7707 10.1619 27.7401 10.5942C27.7095 11.0265 27.5485 11.4394 27.2784 11.7783L25.7142 13.7711V17.3711L27.3213 19.364C27.5914 19.7029 27.7523 20.1158 27.783 20.5481C27.8136 20.9804 27.7124 21.4118 27.4927 21.7854L26.6356 23.2854C26.4227 23.6532 26.1054 23.9494 25.7238 24.1363C25.3423 24.3233 24.9138 24.3926 24.4927 24.3354L21.9642 23.9497L18.8356 25.7497L17.9141 28.1283C17.7588 28.531 17.4854 28.8774 17.1298 29.1221C16.7742 29.3668 16.353 29.4984 15.9213 29.4997H14.1213C13.6896 29.4984 13.2684 29.3668 12.9128 29.1221C12.5572 28.8774 12.2838 28.531 12.1284 28.1283L11.207 25.7497L8.07844 23.9497L5.54986 24.3354C5.12883 24.3926 4.70031 24.3233 4.31875 24.1363C3.9372 23.9494 3.61984 23.6532 3.40701 23.2854L2.54986 21.7854C2.33022 21.4118 2.22903 20.9804 2.25963 20.5481C2.29024 20.1158 2.45121 19.7029 2.72129 19.364L4.28558 17.3711V13.7711L2.67843 11.7783C2.40835 11.4394 2.24738 11.0265 2.21678 10.5942C2.18617 10.1619 2.28737 9.73047 2.50701 9.35686L3.36415 7.85686C3.57699 7.48912 3.89434 7.19295 4.2759 7.00598C4.65745 6.81902 5.08597 6.74971 5.50701 6.80686L8.03558 7.19258L11.207 5.39258ZM10.7141 15.5711C10.7141 16.4188 10.9655 17.2474 11.4364 17.9522C11.9073 18.6569 12.5767 19.2063 13.3598 19.5306C14.1429 19.855 15.0046 19.9399 15.836 19.7745C16.6673 19.6091 17.431 19.201 18.0303 18.6016C18.6297 18.0022 19.0379 17.2386 19.2032 16.4073C19.3686 15.5759 19.2837 14.7142 18.9593 13.9311C18.635 13.148 18.0857 12.4786 17.3809 12.0077C16.6761 11.5368 15.8475 11.2854 14.9999 11.2854C13.8632 11.2854 12.7731 11.737 11.9694 12.5407C11.1657 13.3444 10.7141 14.4345 10.7141 15.5711V15.5711Z" stroke="#FFD268" stroke-width="1.5" stroke-linecap="round" stroke-linejoin="round"/>
</g>
<defs>
<clipPath id="clip0_143_11510">
<rect width="30" height="30" fill="white" transform="translate(0 0.571289)"/>
</clipPath>
</defs>
</svg>
