<svg width="31" height="31" viewBox="0 0 31 31" fill="none" xmlns="http://www.w3.org/2000/svg">
<g clip-path="url(#clip0_134_646)">
<path d="M11.7988 5.36548L12.7202 2.98691C12.8756 2.58419 13.149 2.23779 13.5046 1.99308C13.8602 1.74837 14.2814 1.61675 14.7131 1.61548H16.4702C16.9019 1.61675 17.3231 1.74837 17.6787 1.99308C18.0343 2.23779 18.3077 2.58419 18.4631 2.98691L19.3845 5.36548L22.5131 7.16548L25.0417 6.77976C25.4627 6.72261 25.8912 6.79192 26.2728 6.97888C26.6543 7.16585 26.9717 7.46202 27.1845 7.82976L28.0417 9.32976C28.2613 9.70337 28.3625 10.1348 28.3319 10.5671C28.3013 10.9994 28.1403 11.4123 27.8702 11.7512L26.3059 13.744V17.344L27.9131 19.3369C28.1832 19.6758 28.3441 20.0887 28.3747 20.521C28.4054 20.9533 28.3042 21.3847 28.0845 21.7583L27.2274 23.2583C27.0145 23.6261 26.6972 23.9223 26.3156 24.1092C25.9341 24.2962 25.5056 24.3655 25.0845 24.3083L22.5559 23.9226L19.4274 25.7226L18.5059 28.1012C18.3506 28.5039 18.0772 28.8503 17.7216 29.095C17.366 29.3397 16.9447 29.4713 16.5131 29.4726H14.7131C14.2814 29.4713 13.8602 29.3397 13.5046 29.095C13.149 28.8503 12.8756 28.5039 12.7202 28.1012L11.7988 25.7226L8.67023 23.9226L6.14166 24.3083C5.72062 24.3655 5.2921 24.2962 4.91055 24.1092C4.529 23.9223 4.21164 23.6261 3.9988 23.2583L3.14166 21.7583C2.92202 21.3847 2.82083 20.9533 2.85143 20.521C2.88204 20.0887 3.043 19.6758 3.31309 19.3369L4.87737 17.344V13.744L3.27023 11.7512C3.00015 11.4123 2.83918 10.9994 2.80857 10.5671C2.77797 10.1348 2.87916 9.70337 3.0988 9.32976L3.95595 7.82976C4.16878 7.46202 4.48614 7.16585 4.86769 6.97888C5.24925 6.79192 5.67777 6.72261 6.0988 6.77976L8.62737 7.16548L11.7988 5.36548ZM11.3059 15.544C11.3059 16.3917 11.5573 17.2203 12.0282 17.9251C12.4991 18.6298 13.1685 19.1792 13.9516 19.5035C14.7347 19.8279 15.5964 19.9128 16.4278 19.7474C17.2591 19.5821 18.0228 19.1739 18.6221 18.5745C19.2215 17.9751 19.6297 17.2115 19.795 16.3802C19.9604 15.5488 19.8755 14.6871 19.5511 13.904C19.2268 13.1209 18.6775 12.4515 17.9727 11.9806C17.2679 11.5097 16.4393 11.2583 15.5917 11.2583C14.455 11.2583 13.3649 11.7099 12.5612 12.5136C11.7575 13.3173 11.3059 14.4074 11.3059 15.544V15.544Z" stroke="#081D0D" stroke-width="1.5" stroke-linecap="round" stroke-linejoin="round"/>
</g>
<defs>
<clipPath id="clip0_134_646">
<rect width="30" height="30" fill="white" transform="translate(0.591797 0.543945)"/>
</clipPath>
</defs>
</svg>
