<svg width="141" height="141" viewBox="0 0 141 141" fill="none" xmlns="http://www.w3.org/2000/svg">
<circle cx="70.9531" cy="70.4043" r="70" fill="#FFD268"/>
<path d="M72.1424 19.7394L72.8687 10.4044L74.7541 10.5511L74.1633 18.1457L78.8967 18.5139L78.7613 20.2544L72.1424 19.7394Z" fill="#081D0D"/>
<path d="M79.9533 20.5162L82.1587 11.4163L88.7137 13.005L88.2994 14.7144L83.5824 13.5712L83.084 15.6277L87.1326 16.6089L86.7339 18.254L82.6852 17.2728L82.2024 19.265L86.9194 20.4082L86.5083 22.1048L79.9533 20.5162Z" fill="#081D0D"/>
<path d="M87.1666 22.2543L94.2918 15.1674L96.227 16.0232L95.7419 26.0467L93.8793 25.223L93.9943 23.5241L90.2086 21.8499L89.0292 23.0781L87.1666 22.2543ZM91.455 20.5357L94.1401 21.7232L94.4464 17.4337L91.455 20.5357Z" fill="#081D0D"/>
<path d="M96.7142 26.7536L102.001 19.026L105.112 21.1543C105.498 21.4182 105.838 21.7096 106.132 22.0287C106.439 22.3454 106.672 22.6918 106.832 23.0678C106.991 23.4439 107.039 23.8504 106.975 24.2874C106.923 24.7221 106.725 25.1905 106.382 25.6925C106.128 26.0636 105.837 26.356 105.509 26.5697C105.181 26.7834 104.825 26.9136 104.441 26.9604C104.056 27.0071 103.657 26.9742 103.242 26.8616L102.925 31.0028L101.167 29.8005L101.521 26.0522L100.135 25.1038L98.275 27.8215L96.7142 26.7536ZM101.083 23.7176L102.524 24.7033C102.749 24.8577 102.965 24.9789 103.172 25.067C103.391 25.1528 103.596 25.1968 103.787 25.1991C103.985 25.2064 104.17 25.1621 104.342 25.0664C104.522 24.9756 104.684 24.8247 104.828 24.6137C105.02 24.3495 105.104 24.1023 105.079 23.8721C105.068 23.6396 104.972 23.4196 104.794 23.212C104.628 23.0022 104.399 22.7977 104.108 22.5985L102.569 21.5456L101.083 23.7176Z" fill="#081D0D"/>
<path d="M104.042 31.9698L110.701 25.3878L112.058 26.7611L110.593 34.2899L115.098 29.8369L116.428 31.182L109.768 37.7639L108.448 36.4282L109.83 28.9083L105.371 33.3148L104.042 31.9698Z" fill="#081D0D"/>
<path d="M113.582 42.8028L121.907 38.5176L123.057 40.7518L120.18 45.0441L125.333 45.173L126.441 47.3249L118.115 51.6101L117.25 49.9286L123.329 46.7994L117.891 46.6088L117.54 45.9268L120.527 41.3551L114.448 44.4843L113.582 42.8028Z" fill="#081D0D"/>
<path d="M119.841 58.1132C119.609 57.1808 119.605 56.3276 119.83 55.5536C120.057 54.7882 120.472 54.1393 121.075 53.6071C121.689 53.0813 122.449 52.7053 123.356 52.479C124.28 52.2484 125.137 52.2253 125.928 52.4095C126.722 52.6022 127.395 52.9885 127.949 53.5682C128.511 54.1458 128.908 54.9008 129.141 55.8332C129.371 56.7571 129.378 57.6006 129.159 58.3639C128.941 59.1272 128.53 59.775 127.927 60.3072C127.326 60.848 126.563 61.2336 125.639 61.4642C124.732 61.6905 123.878 61.7083 123.076 61.5177C122.285 61.3335 121.604 60.9536 121.034 60.3782C120.474 59.8092 120.076 59.0542 119.841 58.1132ZM121.567 57.7097C121.721 58.3257 121.987 58.7909 122.365 59.1053C122.744 59.4198 123.177 59.6071 123.664 59.6672C124.154 59.7358 124.642 59.7093 125.13 59.5876C125.489 59.4979 125.831 59.358 126.157 59.1678C126.484 58.9862 126.763 58.7575 126.994 58.4817C127.225 58.206 127.38 57.881 127.459 57.5068C127.547 57.1305 127.533 56.7071 127.415 56.2366C127.264 55.6293 126.999 55.1684 126.62 54.8539C126.25 54.5373 125.82 54.3404 125.328 54.2632C124.838 54.1946 124.341 54.2232 123.836 54.3492C123.332 54.4751 122.879 54.6834 122.479 54.9741C122.081 55.2733 121.789 55.6506 121.603 56.106C121.428 56.5678 121.416 57.1024 121.567 57.7097Z" fill="#081D0D"/>
<path d="M121.203 64.439L130.554 63.9599L130.747 67.7241C130.77 68.1908 130.745 68.6379 130.67 69.0655C130.604 69.5015 130.469 69.8968 130.267 70.2515C130.064 70.6062 129.77 70.8905 129.384 71.1045C129.007 71.3269 128.514 71.4536 127.907 71.4848C127.458 71.5078 127.049 71.4537 126.68 71.3225C126.311 71.1913 125.992 70.987 125.722 70.7095C125.452 70.432 125.236 70.0943 125.074 69.6965L121.588 71.9542L121.479 69.8277L124.674 67.8366L124.588 66.1592L121.299 66.3277L121.203 64.439ZM126.266 66.0733L126.355 67.8167C126.369 68.0897 126.403 68.3351 126.459 68.5529C126.523 68.7792 126.613 68.9688 126.726 69.1219C126.841 69.2838 126.988 69.4042 127.169 69.4833C127.35 69.5711 127.568 69.6085 127.823 69.5954C128.149 69.5875 128.397 69.5042 128.565 69.3455C128.743 69.1951 128.86 68.9861 128.917 68.7183C128.983 68.4589 129.007 68.1531 128.989 67.8009L128.894 65.9386L126.266 66.0733Z" fill="#081D0D"/>
<path d="M121.429 73.4532L130.726 74.5704L129.921 81.267L128.174 81.0571L128.754 76.2382L126.653 75.9857L126.156 80.1218L124.475 79.9199L124.972 75.7837L122.937 75.5392L122.358 80.358L120.624 80.1497L121.429 73.4532Z" fill="#081D0D"/>
<path d="M123.604 88.7069L124.92 87.8691L125.496 89.0562L126.21 87.9429L127.42 88.9213L126.468 89.8433L127.746 90.1677L127.178 91.6355L126.015 91.0151L126.103 92.3255L124.545 92.2475L124.766 90.9433L123.546 91.4214L123.136 89.9156L124.438 89.7387L123.604 88.7069Z" fill="#081D0D"/>
<path d="M113.836 97.1287L121.493 102.518L120.404 104.065L114.175 99.68L111.442 103.562L110.015 102.558L113.836 97.1287Z" fill="#081D0D"/>
<path d="M109.165 103.467L115.868 110.005L111.158 114.833L109.899 113.605L113.288 110.131L111.773 108.653L108.864 111.635L107.653 110.453L110.561 107.471L109.094 106.04L105.705 109.514L104.455 108.295L109.165 103.467Z" fill="#081D0D"/>
<path d="M103.989 108.788L106.471 118.526L104.751 119.757L96.3649 114.246L98.021 113.06L99.4256 114.023L102.791 111.613L102.333 109.973L103.989 108.788ZM103.29 113.354L100.903 115.063L104.441 117.507L103.29 113.354Z" fill="#081D0D"/>
<path d="M95.2663 114.724L99.2363 123.204L95.8228 124.802C95.3996 125 94.9758 125.145 94.5514 125.237C94.1228 125.34 93.706 125.365 93.3011 125.311C92.8963 125.257 92.5219 125.092 92.178 124.815C91.8299 124.549 91.5268 124.141 91.2689 123.59C91.0782 123.183 90.9741 122.784 90.9566 122.393C90.9391 122.002 91.0079 121.629 91.163 121.274C91.318 120.919 91.5493 120.592 91.8568 120.292L88.4512 117.915L90.3795 117.012L93.4286 119.22L94.9498 118.508L93.5535 115.526L95.2663 114.724ZM95.6619 120.029L94.0809 120.77C93.8334 120.886 93.6191 121.01 93.4382 121.144C93.253 121.289 93.111 121.443 93.0121 121.606C92.9053 121.773 92.8493 121.955 92.8442 122.152C92.8312 122.353 92.8788 122.569 92.9872 122.8C93.1176 123.099 93.288 123.297 93.4985 123.393C93.7048 123.501 93.9426 123.531 94.2121 123.483C94.4773 123.446 94.7696 123.353 95.089 123.204L96.7778 122.413L95.6619 120.029Z" fill="#081D0D"/>
<path d="M87.0527 118.384L89.3193 127.469L87.4459 127.936L81.7165 122.837L83.25 128.983L81.4151 129.441L79.1484 120.356L80.9705 119.902L86.7353 124.924L85.2178 118.842L87.0527 118.384Z" fill="#081D0D"/>
<path d="M72.7923 121.058L72.228 130.404L69.7199 130.253L67.4975 125.588L64.7563 129.953L62.3405 129.807L62.9048 120.461L64.7926 120.575L64.3805 127.4L67.32 122.821L68.0857 122.867L70.4925 127.769L70.9046 120.944L72.7923 121.058Z" fill="#081D0D"/>
<path d="M56.4385 118.637C57.3594 118.912 58.0956 119.343 58.6471 119.931C59.1901 120.516 59.537 121.204 59.6877 121.994C59.8274 122.79 59.7636 123.636 59.4965 124.531C59.2242 125.444 58.8074 126.194 58.2458 126.78C57.6759 127.365 57.0004 127.748 56.2196 127.929C55.4362 128.118 54.584 128.076 53.6631 127.801C52.7507 127.529 52.0217 127.104 51.4761 126.527C50.9305 125.951 50.5824 125.267 50.4317 124.477C50.2726 123.684 50.3291 122.832 50.6013 121.919C50.8685 121.024 51.2884 120.279 51.8609 119.686C52.4224 119.1 53.0961 118.707 53.882 118.509C54.657 118.317 55.5091 118.36 56.4385 118.637ZM55.9065 120.328C55.2982 120.146 54.7623 120.138 54.299 120.303C53.8356 120.469 53.4539 120.746 53.1539 121.135C52.8454 121.521 52.6193 121.955 52.4756 122.437C52.3698 122.792 52.3158 123.157 52.3139 123.534C52.3035 123.908 52.3581 124.265 52.4777 124.604C52.5972 124.943 52.7978 125.243 53.0795 125.501C53.3585 125.769 53.7304 125.972 54.1951 126.11C54.795 126.289 55.3266 126.296 55.7899 126.131C56.2508 125.974 56.6397 125.703 56.9566 125.319C57.2651 124.933 57.4937 124.491 57.6424 123.992C57.7911 123.494 57.8423 122.998 57.796 122.506C57.7412 122.011 57.5652 121.568 57.2682 121.175C56.9603 120.789 56.5063 120.507 55.9065 120.328Z" fill="#081D0D"/>
<path d="M50.2959 116.583L45.9346 124.869L42.5993 123.113C42.1858 122.895 41.8144 122.645 41.4851 122.362C41.1439 122.083 40.8725 121.766 40.6709 121.41C40.4693 121.055 40.375 120.657 40.3882 120.216C40.3895 119.778 40.5318 119.29 40.8151 118.751C41.0246 118.354 41.2798 118.03 41.5808 117.78C41.8818 117.529 42.2206 117.359 42.5972 117.268C42.9737 117.178 43.3743 117.164 43.7989 117.228L43.6371 113.078L45.5212 114.07L45.6023 117.834L47.0886 118.616L48.6224 115.702L50.2959 116.583ZM46.3062 120.102L44.7615 119.289C44.5196 119.162 44.2909 119.067 44.0753 119.003C43.8478 118.943 43.6392 118.923 43.4495 118.943C43.252 118.958 43.0732 119.023 42.913 119.138C42.7451 119.249 42.6016 119.418 42.4825 119.644C42.3227 119.929 42.2681 120.184 42.3186 120.41C42.3572 120.639 42.4771 120.847 42.6783 121.032C42.8675 121.222 43.1182 121.398 43.4303 121.563L45.0804 122.431L46.3062 120.102Z" fill="#081D0D"/>
<path d="M42.5077 112.224L36.8013 119.647L31.4539 115.536L32.5259 114.142L36.3739 117.1L37.6635 115.422L34.3607 112.883L35.3924 111.541L38.6952 114.08L39.9445 112.455L36.0964 109.497L37.1604 108.113L42.5077 112.224Z" fill="#081D0D"/>
<path d="M28.2715 106.311L28.3234 107.871L27.0084 107.763L27.6039 108.945L26.1463 109.489L25.8365 108.2L24.9072 109.136L23.9321 107.9L25.058 107.214L23.8846 106.624L24.7439 105.322L25.7546 106.175L25.9633 104.882L27.4684 105.294L26.9587 106.505L28.2715 106.311Z" fill="#081D0D"/>
<path d="M27.9184 97.0225L19.7114 101.53L18.801 99.8723L25.4779 96.2053L23.1923 92.0438L24.7224 91.2035L27.9184 97.0225Z" fill="#081D0D"/>
<path d="M24.2808 90.0424L15.457 93.1749L13.2006 86.8188L14.8581 86.2304L16.4819 90.8042L18.476 90.0963L17.0823 86.1705L18.6775 85.6042L20.0712 89.53L22.003 88.8442L20.3792 84.2703L22.0243 83.6863L24.2808 90.0424Z" fill="#081D0D"/>
<path d="M21.7878 83.0473L11.9573 80.9602L11.6149 78.872L20.2707 73.7943L20.6002 75.8041L19.1152 76.6372L19.785 80.7221L21.4582 81.0374L21.7878 83.0473ZM18.003 80.3978L17.528 77.5005L13.7698 79.5909L18.003 80.3978Z" fill="#081D0D"/>
<path d="M20.3286 72.5451L10.9673 72.3553L11.0437 68.587C11.0532 68.1198 11.1107 67.6756 11.2162 67.2545C11.3131 66.8243 11.4752 66.4396 11.7026 66.1003C11.9299 65.761 12.2439 65.4984 12.6445 65.3125C13.0364 65.1176 13.5365 65.0264 14.1448 65.0387C14.5943 65.0478 14.9983 65.131 15.3566 65.2881C15.715 65.4453 16.0191 65.6719 16.2688 65.968C16.5185 66.2641 16.7098 66.6163 16.8426 67.0246L20.4812 65.0216L20.438 67.1504L17.1087 68.9084L17.0746 70.5876L20.367 70.6543L20.3286 72.5451ZM15.3954 70.5535L15.4308 68.8082C15.4363 68.5349 15.4193 68.2877 15.3797 68.0664C15.3314 67.8362 15.256 67.6406 15.1535 67.4798C15.0511 67.3102 14.9127 67.1795 14.7381 67.0878C14.5638 66.9872 14.3488 66.9344 14.0932 66.9292C13.7672 66.9138 13.5146 66.9792 13.3352 67.1255C13.1473 67.2628 13.0154 67.4629 12.9395 67.7259C12.855 67.9799 12.8091 68.2833 12.802 68.6359L12.7642 70.5002L15.3954 70.5535Z" fill="#081D0D"/>
<path d="M20.673 63.5664L11.5186 61.5997L11.9241 59.712L19.0259 56.8144L12.8325 55.4839L13.2297 53.6349L22.3841 55.6016L21.9896 57.4376L14.9414 60.4008L21.0702 61.7174L20.673 63.5664Z" fill="#081D0D"/>
<path d="M24.5352 49.6291L16.4043 44.9859L17.6504 42.8039L22.8175 42.8763L20.1163 38.4858L21.3164 36.3842L29.4473 41.0274L28.5095 42.6697L22.5721 39.279L25.3767 43.9418L24.9964 44.6079L19.5356 44.5963L25.473 47.9869L24.5352 49.6291Z" fill="#081D0D"/>
<path d="M33.9435 36.0367C33.2904 36.7416 32.5783 37.2117 31.8074 37.4469C31.0425 37.6757 30.2723 37.6832 29.4968 37.4695C28.7208 37.2432 27.9901 36.8125 27.3046 36.1773C26.6061 35.5301 26.1176 34.825 25.8389 34.062C25.5663 33.2926 25.5212 32.5176 25.7036 31.737C25.8795 30.9504 26.294 30.2047 26.9472 29.4998C27.5944 28.8013 28.2972 28.3347 29.0556 28.1C29.8141 27.8652 30.5811 27.8547 31.3566 28.0684C32.1381 28.2757 32.8781 28.703 33.5765 29.3502C34.262 29.9854 34.7443 30.6907 35.0234 31.4662C35.3021 32.2292 35.3566 33.0069 35.1872 33.7995C35.0173 34.5796 34.6027 35.3253 33.9435 36.0367ZM32.6616 34.8128C33.0931 34.3472 33.3369 33.87 33.3932 33.3812C33.4494 32.8924 33.3693 32.4276 33.1529 31.9866C32.9424 31.5392 32.6529 31.1447 32.2843 30.8031C32.0127 30.5515 31.7083 30.3416 31.3713 30.1735C31.0402 29.9989 30.696 29.8904 30.3388 29.8479C29.9816 29.8053 29.6247 29.8532 29.2681 29.9916C28.905 30.124 28.5587 30.368 28.2291 30.7237C27.8037 31.1828 27.5628 31.6568 27.5066 32.1456C27.4439 32.6284 27.5147 33.0967 27.7192 33.5506C27.9296 33.998 28.2256 34.3985 28.6072 34.752C28.9888 35.1056 29.4106 35.3703 29.8727 35.5461C30.3409 35.7154 30.8165 35.7534 31.2995 35.6602C31.7821 35.5544 32.2362 35.272 32.6616 34.8128Z" fill="#081D0D"/>
<path d="M38.4973 31.4272L32.9736 23.8668L36.017 21.6433C36.3943 21.3677 36.7824 21.1441 37.1814 20.9728C37.5822 20.7891 37.9865 20.6849 38.3941 20.66C38.8018 20.6351 39.201 20.7256 39.5917 20.9316C39.9843 21.1252 40.36 21.4676 40.7189 21.9588C40.9841 22.3219 41.1629 22.6936 41.2551 23.0739C41.3473 23.4542 41.3514 23.8334 41.2673 24.2115C41.1832 24.5895 41.019 24.9552 40.7748 25.3083L44.5734 26.988L42.8542 28.2441L39.4379 26.6618L38.0817 27.6526L40.0244 30.3116L38.4973 31.4272ZM37.0909 26.2965L38.5004 25.2666C38.7211 25.1054 38.9075 24.9419 39.0594 24.7763C39.2133 24.5984 39.3231 24.4199 39.3888 24.2408C39.4617 24.0566 39.4817 23.8673 39.4489 23.6729C39.4232 23.4733 39.3349 23.2702 39.184 23.0638C38.9987 22.7952 38.7935 22.6339 38.5685 22.5799C38.3454 22.5137 38.1062 22.5301 37.851 22.6291C37.5978 22.7159 37.3287 22.8633 37.044 23.0714L35.5383 24.1714L37.0909 26.2965Z" fill="#081D0D"/>
<path d="M45.8375 26.3475L41.6812 17.9573L47.7249 14.9633L48.5057 16.5394L44.1566 18.6939L45.0959 20.59L48.8288 18.7408L49.5802 20.2577L45.8473 22.1069L46.7572 23.9437L51.1064 21.7892L51.8813 23.3535L45.8375 26.3475Z" fill="#081D0D"/>
<path d="M60.6592 15.9484L59.2252 15.3327L59.8813 14.188L58.5591 14.2252L58.6858 12.6746L59.9841 12.9417L59.5318 11.7029L61.0643 11.345L61.2076 12.656L62.2403 11.8444L63.0537 13.1755L61.8517 13.7278L62.9341 14.4664L61.9212 15.6537L61.0414 14.6776L60.6592 15.9484Z" fill="#081D0D"/>
<circle cx="70.9531" cy="70.4044" r="30" fill="#081D0D"/>
<path d="M71.9307 54.4044V62.6698H76.7091C76.9396 61.9343 77.6261 61.4003 78.4381 61.4003C79.4388 61.4003 80.2498 62.2113 80.2498 63.212C80.2498 64.2126 79.4388 65.0237 78.4381 65.0237C77.6266 65.0237 76.9396 64.4896 76.7091 63.7541H71.9307V69.862H79.4578C79.6882 69.1265 80.3748 68.5924 81.1868 68.5924C82.1874 68.5924 82.998 69.4035 82.998 70.4041C82.998 71.4048 82.187 72.2158 81.1868 72.2158C80.3748 72.2158 79.6882 71.6818 79.4578 70.9463H71.9307V77.0541H76.7091C76.9396 76.3181 77.6261 75.7846 78.4381 75.7846C79.4388 75.7846 80.2498 76.5956 80.2498 77.5963C80.2498 78.5969 79.4388 79.408 78.4381 79.408C77.6266 79.408 76.9396 78.8739 76.7091 78.1384H71.9307V86.4044C80.3292 85.8988 86.9849 78.9309 86.9849 70.4055C86.9849 61.8778 80.3292 54.9094 71.9307 54.4044Z" fill="#FFD268"/>
<path d="M54.9219 70.4032C54.9219 78.9286 61.5776 85.8964 69.9761 86.402V54.4044C61.5776 54.9094 54.9219 61.8778 54.9219 70.4032ZM68.0756 62.6698H65.1977C64.9672 61.9339 64.2806 61.3998 63.4686 61.3998C62.468 61.3998 61.6569 62.2108 61.6569 63.2115C61.6569 64.2121 62.468 65.0232 63.4686 65.0232C64.2802 65.0232 64.9672 64.4891 65.1977 63.7536H68.0756V69.8615H62.449C62.2186 69.1255 61.532 68.5915 60.72 68.5915C59.7198 68.5915 58.9087 69.4025 58.9087 70.4032C58.9087 71.4038 59.7198 72.2149 60.72 72.2149C61.5315 72.2149 62.2186 71.6808 62.449 70.9453H68.0756V77.0532H65.1977C64.9672 76.3172 64.2806 75.7836 63.4686 75.7836C62.468 75.7836 61.6569 76.5947 61.6569 77.5953C61.6569 78.596 62.468 79.407 63.4686 79.407C64.2802 79.407 64.9672 78.873 65.1977 78.1374H68.0756V84.2387C61.6251 82.904 56.8224 77.1753 56.8224 70.4041C56.8224 63.6329 61.6246 57.9042 68.0756 56.5695V62.6698Z" fill="#FFD268"/>
</svg>
