<svg width="121" height="121" viewBox="0 0 121 121" fill="none" xmlns="http://www.w3.org/2000/svg">
<path d="M61.3634 9.57558L62.0898 0.238281L63.9758 0.385003L63.3848 7.98145L68.1194 8.3498L67.9839 10.0906L61.3634 9.57558Z" fill="white"/>
<path d="M69.1769 10.352L71.3828 1.25L77.9394 2.83902L77.525 4.54887L72.8068 3.40539L72.3083 5.46235L76.3579 6.4438L75.9591 8.08936L71.9095 7.10791L71.4266 9.10058L76.1447 10.2441L75.7334 11.941L69.1769 10.352Z" fill="white"/>
<path d="M76.3917 12.0907L83.5187 5.00205L85.4544 5.85808L84.9691 15.884L83.1061 15.0601L83.2211 13.3608L79.4345 11.6862L78.2548 12.9146L76.3917 12.0907ZM80.6812 10.3717L83.3669 11.5594L83.6733 7.26894L80.6812 10.3717Z" fill="white"/>
<path d="M85.94 16.5908L91.2285 8.86133L94.34 10.9902C94.7257 11.2541 95.0659 11.5456 95.3604 11.8647C95.6673 12.1815 95.9004 12.528 96.0597 12.9041C96.2191 13.2803 96.2668 13.6869 96.2028 14.124C96.1511 14.5588 95.9534 15.0273 95.6098 15.5295C95.3559 15.9007 95.0649 16.1931 94.737 16.4069C94.4091 16.6206 94.0529 16.7509 93.6683 16.7976C93.2837 16.8443 92.8842 16.8114 92.4697 16.6988L92.1519 20.841L90.3943 19.6384L90.7476 15.8892L89.3611 14.9405L87.5012 17.6589L85.94 16.5908ZM90.3098 13.554L91.7509 14.54C91.9765 14.6944 92.1927 14.8156 92.3996 14.9037C92.6187 14.9896 92.8236 15.0336 93.0144 15.0359C93.2124 15.0432 93.3976 14.9989 93.57 14.9032C93.7497 14.8124 93.9117 14.6615 94.0561 14.4504C94.2476 14.1861 94.3313 13.9388 94.3072 13.7086C94.2953 13.4761 94.2001 13.256 94.0216 13.0484C93.8554 12.8385 93.6267 12.6339 93.3356 12.4347L91.7962 11.3815L90.3098 13.554Z" fill="white"/>
<path d="M93.2705 21.8101L99.9316 15.2266L101.289 16.6002L99.8233 24.1308L104.33 19.6767L105.66 21.0221L98.9985 27.6056L97.6781 26.2696L99.0598 18.7479L94.6002 23.1555L93.2705 21.8101Z" fill="white"/>
<path d="M102.813 32.6436L111.141 28.3574L112.291 30.5921L109.413 34.8855L114.567 35.0144L115.675 37.1668L107.348 41.453L106.482 39.7711L112.563 36.6412L107.124 36.4505L106.773 35.7684L109.76 31.1956L103.679 34.3255L102.813 32.6436Z" fill="white"/>
<path d="M109.074 47.9584C108.841 47.0258 108.837 46.1724 109.062 45.3982C109.289 44.6326 109.704 43.9836 110.308 43.4513C110.922 42.9254 111.682 42.5492 112.589 42.3229C113.513 42.0923 114.371 42.0691 115.162 42.2533C115.956 42.4462 116.629 42.8325 117.183 43.4124C117.745 43.9901 118.143 44.7453 118.376 45.6779C118.606 46.602 118.612 47.4458 118.394 48.2092C118.175 48.9727 117.764 49.6206 117.161 50.153C116.56 50.6939 115.797 51.0796 114.873 51.3102C113.966 51.5366 113.112 51.5544 112.31 51.3637C111.518 51.1795 110.837 50.7996 110.266 50.224C109.706 49.6548 109.309 48.8996 109.074 47.9584ZM110.8 47.5549C110.954 48.1709 111.22 48.6363 111.598 48.9508C111.977 49.2654 112.41 49.4527 112.897 49.5128C113.387 49.5814 113.876 49.5549 114.364 49.4332C114.723 49.3435 115.065 49.2035 115.39 49.0133C115.718 48.8316 115.997 48.6029 116.228 48.3271C116.459 48.0513 116.614 47.7262 116.694 47.3519C116.782 46.9755 116.767 46.552 116.649 46.0814C116.498 45.4739 116.233 45.0129 115.854 44.6983C115.484 44.3816 115.053 44.1847 114.562 44.1075C114.072 44.0389 113.574 44.0675 113.07 44.1935C112.565 44.3195 112.112 44.5279 111.712 44.8186C111.314 45.1179 111.022 45.4953 110.836 45.9508C110.66 46.4127 110.648 46.9474 110.8 47.5549Z" fill="white"/>
<path d="M110.436 54.2859L119.789 53.8066L119.982 57.5717C120.006 58.0385 119.98 58.4857 119.905 58.9135C119.839 59.3495 119.705 59.7449 119.502 60.0997C119.3 60.4545 119.005 60.7389 118.619 60.9529C118.242 61.1754 117.749 61.3021 117.141 61.3333C116.692 61.3563 116.283 61.3022 115.915 61.171C115.546 61.0397 115.226 60.8354 114.956 60.5578C114.686 60.2802 114.47 59.9425 114.308 59.5446L110.821 61.8028L110.712 59.6759L113.908 57.6842L113.822 56.0065L110.533 56.175L110.436 54.2859ZM115.5 55.9205L115.589 57.6643C115.603 57.9374 115.638 58.1828 115.693 58.4008C115.758 58.627 115.847 58.8167 115.961 58.9698C116.075 59.1318 116.222 59.2522 116.403 59.3313C116.584 59.4192 116.802 59.4565 117.058 59.4434C117.384 59.4356 117.632 59.3522 117.8 59.1935C117.978 59.0431 118.095 58.834 118.152 58.5662C118.218 58.3067 118.242 58.0008 118.224 57.6485L118.129 55.7858L115.5 55.9205Z" fill="white"/>
<path d="M110.662 63.3024L119.961 64.4199L119.156 71.1181L117.409 70.9081L117.988 66.0881L115.887 65.8356L115.39 69.9727L113.709 69.7706L114.206 65.6335L112.17 65.3889L111.591 70.2089L109.857 70.0006L110.662 63.3024Z" fill="white"/>
<path d="M112.837 78.5611L114.154 77.7231L114.73 78.9105L115.444 77.7969L116.654 78.7756L115.702 79.6978L116.98 80.0223L116.412 81.4904L115.248 80.8698L115.337 82.1806L113.779 82.1026L114 80.7981L112.779 81.2762L112.369 79.7701L113.671 79.5932L112.837 78.5611Z" fill="white"/>
<path d="M103.068 86.9823L110.727 92.373L109.638 93.9199L103.407 89.5342L100.674 93.4175L99.2458 92.4125L103.068 86.9823Z" fill="white"/>
<path d="M98.3953 93.3238L105.1 99.8633L100.389 104.693L99.1295 103.464L102.519 99.989L101.004 98.5111L98.0947 101.494L96.8826 100.312L99.7922 97.3288L98.3244 95.8972L94.9346 99.3724L93.6846 98.1532L98.3953 93.3238Z" fill="white"/>
<path d="M93.2183 98.6444L95.7012 108.385L93.9803 109.617L85.5923 104.104L87.2487 102.918L88.6537 103.881L92.0203 101.471L91.5619 99.8302L93.2183 98.6444ZM92.5188 103.212L90.131 104.922L93.6704 107.366L92.5188 103.212Z" fill="white"/>
<path d="M84.4938 104.582L88.4648 113.064L85.0505 114.663C84.6272 114.861 84.2033 115.006 83.7788 115.098C83.35 115.201 82.9332 115.226 82.5282 115.172C82.1233 115.118 81.7488 114.953 81.4048 114.675C81.0566 114.41 80.7535 114.002 80.4955 113.451C80.3048 113.043 80.2007 112.644 80.1831 112.253C80.1656 111.862 80.2344 111.489 80.3895 111.134C80.5447 110.779 80.776 110.452 81.0836 110.152L77.6771 107.774L79.6059 106.871L82.6558 109.08L84.1772 108.368L82.7807 105.385L84.4938 104.582ZM84.8896 109.889L83.3082 110.629C83.0606 110.745 82.8463 110.87 82.6653 111.003C82.4801 111.149 82.338 111.303 82.2392 111.466C82.1323 111.633 82.0763 111.815 82.0712 112.012C82.0581 112.213 82.1058 112.429 82.2143 112.661C82.3446 112.96 82.5151 113.158 82.7256 113.254C82.932 113.362 83.1699 113.391 83.4394 113.343C83.7047 113.307 83.997 113.214 84.3165 113.064L86.0057 112.273L84.8896 109.889Z" fill="white"/>
<path d="M76.2777 108.243L78.5449 117.33L76.6711 117.798L70.9402 112.697L72.4741 118.845L70.6388 119.303L68.3716 110.216L70.1941 109.761L75.9602 114.785L74.4424 108.701L76.2777 108.243Z" fill="white"/>
<path d="M62.0156 110.919L61.4512 120.268L58.9424 120.116L56.7195 115.45L53.9777 119.816L51.5613 119.67L52.1258 110.322L54.0139 110.436L53.6018 117.262L56.542 112.682L57.3078 112.729L59.7153 117.632L60.1274 110.805L62.0156 110.919Z" fill="white"/>
<path d="M45.6558 108.497C46.577 108.772 47.3133 109.203 47.865 109.791C48.4081 110.376 48.7551 111.064 48.9058 111.855C49.0456 112.651 48.9818 113.497 48.7146 114.393C48.4423 115.305 48.0253 116.055 47.4636 116.642C46.8935 117.227 46.2179 117.61 45.4369 117.791C44.6533 117.98 43.801 117.938 42.8798 117.663C41.9672 117.391 41.238 116.966 40.6923 116.389C40.1466 115.812 39.7984 115.129 39.6476 114.338C39.4885 113.545 39.545 112.692 39.8173 111.78C40.0846 110.884 40.5045 110.14 41.0771 109.547C41.6388 108.96 42.3127 108.567 43.0988 108.369C43.8739 108.177 44.7262 108.22 45.6558 108.497ZM45.1237 110.188C44.5153 110.006 43.9793 109.998 43.5158 110.164C43.0523 110.329 42.6706 110.606 42.3704 110.995C42.0619 111.382 41.8357 111.816 41.692 112.298C41.5861 112.653 41.5322 113.018 41.5303 113.395C41.5199 113.769 41.5745 114.126 41.6941 114.466C41.8137 114.805 42.0143 115.104 42.296 115.363C42.5752 115.63 42.9471 115.833 43.4119 115.972C44.0119 116.151 44.5437 116.158 45.0072 115.992C45.4681 115.835 45.8571 115.565 46.1741 115.181C46.4827 114.794 46.7113 114.352 46.8601 113.853C47.0088 113.355 47.06 112.859 47.0137 112.367C46.9588 111.872 46.7829 111.428 46.4858 111.036C46.1778 110.65 45.7237 110.367 45.1237 110.188Z" fill="white"/>
<path d="M39.5108 106.443L35.1484 114.73L31.8124 112.974C31.3988 112.757 31.0273 112.506 30.6979 112.223C30.3566 111.944 30.0851 111.627 29.8835 111.271C29.6818 110.916 29.5876 110.518 29.6007 110.076C29.602 109.638 29.7443 109.15 30.0278 108.612C30.2373 108.214 30.4926 107.89 30.7936 107.64C31.0947 107.389 31.4336 107.219 31.8102 107.128C32.1869 107.038 32.5875 107.024 33.0122 107.088L32.8504 102.937L34.735 103.929L34.8161 107.694L36.3027 108.477L37.8369 105.562L39.5108 106.443ZM35.5202 109.963L33.9751 109.15C33.7332 109.022 33.5044 108.927 33.2888 108.863C33.0612 108.803 32.8526 108.783 32.6628 108.803C32.4652 108.818 32.2864 108.884 32.1262 108.999C31.9582 109.11 31.8146 109.278 31.6955 109.505C31.5357 109.789 31.4811 110.044 31.5316 110.27C31.5702 110.5 31.6901 110.708 31.8913 110.893C32.0807 111.083 32.3314 111.259 32.6436 111.424L34.294 112.293L35.5202 109.963Z" fill="white"/>
<path d="M31.7215 102.081L26.0137 109.506L20.665 105.394L21.7372 103.999L25.5862 106.958L26.8761 105.28L23.5725 102.741L24.6044 101.398L27.908 103.938L29.1576 102.312L25.3087 99.3534L26.3728 97.9691L31.7215 102.081Z" fill="white"/>
<path d="M17.483 96.1684L17.5349 97.7285L16.2196 97.6208L16.8152 98.8023L15.3573 99.3465L15.0475 98.0574L14.1179 98.9935L13.1425 97.758L14.2688 97.0711L13.095 96.4809L13.9546 95.1787L14.9655 96.0323L15.1743 94.7383L16.6797 95.1509L16.1699 96.3624L17.483 96.1684Z" fill="white"/>
<path d="M17.1288 86.8762L8.91992 91.3848L8.0093 89.7268L14.6877 86.0588L12.4016 81.8964L13.9321 81.0558L17.1288 86.8762Z" fill="white"/>
<path d="M13.4919 79.896L4.66602 83.0293L2.409 76.6717L4.06696 76.0831L5.69113 80.6581L7.68567 79.95L6.29163 76.0232L7.88726 75.4568L9.2813 79.3835L11.2135 78.6976L9.58935 74.1226L11.2348 73.5384L13.4919 79.896Z" fill="white"/>
<path d="M10.996 72.8988L1.16321 70.8112L0.820775 68.7226L9.47862 63.6436L9.80822 65.6539L8.32287 66.4872L8.99275 70.5731L10.6664 70.8885L10.996 72.8988ZM7.21036 70.2487L6.73523 67.3508L2.97618 69.4416L7.21036 70.2487Z" fill="white"/>
<path d="M9.53742 62.3949L0.173828 62.2051L0.250245 58.4358C0.259719 57.9685 0.317239 57.5243 0.422805 57.103C0.519734 56.6728 0.681895 56.288 0.90929 55.9486C1.13669 55.6092 1.45073 55.3465 1.85143 55.1606C2.24348 54.9657 2.74369 54.8744 3.35206 54.8867C3.80173 54.8958 4.20579 54.979 4.56424 55.1362C4.9227 55.2934 5.22682 55.5201 5.47662 55.8162C5.72641 56.1124 5.91773 56.4647 6.05058 56.8731L9.68999 54.8697L9.64682 56.9989L6.31669 58.7573L6.28264 60.4369L9.57576 60.5037L9.53742 62.3949ZM4.60301 60.4029L4.6384 58.6571C4.64394 58.3838 4.6269 58.1365 4.58729 57.9151C4.53903 57.6848 4.46362 57.4892 4.36103 57.3284C4.25862 57.1587 4.12014 57.028 3.94559 56.9363C3.77122 56.8357 3.55619 56.7828 3.3005 56.7777C2.97445 56.7622 2.72174 56.8277 2.54236 56.974C2.35434 57.1113 2.22238 57.3115 2.14649 57.5746C2.06195 57.8287 2.01611 58.132 2.00896 58.4847L1.97115 60.3495L4.60301 60.4029Z" fill="white"/>
<path d="M9.88121 53.4125L0.724609 51.4453L1.13026 49.5571L8.23375 46.6589L2.03882 45.328L2.43614 43.4786L11.5927 45.4457L11.1982 47.2822L4.14826 50.246L10.2785 51.563L9.88121 53.4125Z" fill="white"/>
<path d="M13.7461 39.4725L5.61328 34.8281L6.85965 32.6456L12.028 32.718L9.32614 28.3265L10.5266 26.2243L18.6594 30.8687L17.7214 32.5113L11.7826 29.1199L14.5879 33.7838L14.2074 34.45L8.74536 34.4384L14.6842 37.8298L13.7461 39.4725Z" fill="white"/>
<path d="M23.1569 25.8769C22.5036 26.582 21.7914 27.0522 21.0203 27.2875C20.2552 27.5163 19.4848 27.5239 18.7091 27.31C17.9329 27.0838 17.202 26.6529 16.5163 26.0176C15.8177 25.3702 15.3291 24.665 15.0504 23.9018C14.7777 23.1321 14.7325 22.3569 14.915 21.5762C15.0909 20.7894 15.5056 20.0435 16.1589 19.3384C16.8063 18.6398 17.5092 18.1731 18.2678 17.9383C19.0265 17.7034 19.7936 17.6929 20.5693 17.9068C21.351 18.1141 22.0912 18.5415 22.7898 19.1888C23.4755 19.8242 23.9579 20.5297 24.2371 21.3053C24.5158 22.0685 24.5704 22.8464 24.4009 23.6392C24.2309 24.4195 23.8163 25.1654 23.1569 25.8769ZM21.8747 24.6527C22.3063 24.187 22.5502 23.7097 22.6064 23.2208C22.6627 22.7319 22.5826 22.2669 22.3661 21.8259C22.1556 21.3784 21.866 20.9838 21.4973 20.6421C21.2256 20.3904 20.9212 20.1804 20.584 20.0123C20.2529 19.8377 19.9086 19.7291 19.5513 19.6866C19.194 19.644 18.837 19.692 18.4803 19.8304C18.1172 19.9628 17.7708 20.2068 17.4411 20.5626C17.0156 21.0219 16.7747 21.496 16.7184 21.9849C16.6557 22.4678 16.7266 22.9362 16.9311 23.3902C17.1416 23.8377 17.4376 24.2383 17.8193 24.592C18.2009 24.9456 18.6229 25.2103 19.0851 25.3862C19.5534 25.5555 20.0291 25.5936 20.5123 25.5003C20.995 25.3945 21.4491 25.112 21.8747 24.6527Z" fill="white"/>
<path d="M27.7106 21.2673L22.1855 13.7051L25.2297 11.481C25.6071 11.2053 25.9953 10.9817 26.3943 10.8103C26.7952 10.6266 27.1996 10.5223 27.6074 10.4975C28.0151 10.4726 28.4144 10.5631 28.8052 10.7691C29.1979 10.9628 29.5737 11.3053 29.9326 11.7966C30.198 12.1598 30.3768 12.5315 30.469 12.9119C30.5613 13.2923 30.5653 13.6716 30.4812 14.0498C30.3971 14.428 30.2329 14.7937 29.9886 15.1469L33.7881 16.827L32.0684 18.0834L28.6513 16.5007L27.2948 17.4918L29.238 20.1514L27.7106 21.2673ZM26.3038 16.1353L27.7137 15.1052C27.9344 14.9439 28.1208 14.7804 28.2728 14.6148C28.4267 14.4368 28.5366 14.2582 28.6023 14.0792C28.6752 13.8949 28.6952 13.7055 28.6623 13.5111C28.6366 13.3114 28.5483 13.1083 28.3974 12.9018C28.2121 12.6332 28.0068 12.4718 27.7817 12.4179C27.5586 12.3516 27.3193 12.368 27.0641 12.4671C26.8108 12.5539 26.5417 12.7013 26.2569 12.9094L24.7508 14.0097L26.3038 16.1353Z" fill="white"/>
<path d="M35.0539 16.1852L30.8965 7.79297L36.9417 4.79825L37.7227 6.37475L33.3725 8.52978L34.312 10.4263L38.0458 8.57664L38.7975 10.0939L35.0636 11.9436L35.9738 13.7808L40.324 11.6258L41.0991 13.1905L35.0539 16.1852Z" fill="white"/>
<path d="M49.8785 5.78341L48.4442 5.16751L49.1005 4.02258L47.778 4.05978L47.9047 2.50875L49.2033 2.776L48.7509 1.53684L50.2838 1.17883L50.4271 2.4902L51.46 1.67841L52.2736 3.00983L51.0714 3.56229L52.1541 4.30107L51.1409 5.48858L50.2609 4.51229L49.8785 5.78341Z" fill="white"/>
<circle cx="60.1752" cy="60.2533" r="30.0072" fill="white"/>
<path d="M61.2734 42.248V51.5489H66.6505C66.9098 50.7213 67.6824 50.1203 68.5961 50.1203C69.7221 50.1203 70.6348 51.033 70.6348 52.159C70.6348 53.285 69.7221 54.1976 68.5961 54.1976C67.6829 54.1976 66.9098 53.5967 66.6505 52.769H61.2734V59.642H69.7435C70.0028 58.8144 70.7754 58.2134 71.6891 58.2134C72.8151 58.2134 73.7272 59.1261 73.7272 60.2521C73.7272 61.3781 72.8145 62.2907 71.6891 62.2907C70.7754 62.2907 70.0028 61.6898 69.7435 60.8621H61.2734V67.7352H66.6505C66.9098 66.907 67.6824 66.3065 68.5961 66.3065C69.7221 66.3065 70.6348 67.2192 70.6348 68.3452C70.6348 69.4712 69.7221 70.3838 68.5961 70.3838C67.6829 70.3838 66.9098 69.7829 66.6505 68.9552H61.2734V78.2567C70.724 77.6878 78.2135 69.8471 78.2135 60.2537C78.2135 50.6577 70.724 42.8164 61.2734 42.248Z" fill="#FFD268"/>
<path d="M42.1348 60.251C42.1348 69.8444 49.6242 77.6851 59.0748 78.254V42.248C49.6242 42.8164 42.1348 50.6577 42.1348 60.251ZM56.9362 51.5489H53.6978C53.4385 50.7208 52.6659 50.1198 51.7522 50.1198C50.6262 50.1198 49.7135 51.0325 49.7135 52.1584C49.7135 53.2844 50.6262 54.1971 51.7522 54.1971C52.6654 54.1971 53.4385 53.5961 53.6978 52.7685H56.9362V59.6415H50.6048C50.3455 58.8133 49.5729 58.2124 48.6592 58.2124C47.5337 58.2124 46.6211 59.125 46.6211 60.251C46.6211 61.377 47.5337 62.2897 48.6592 62.2897C49.5724 62.2897 50.3455 61.6887 50.6048 60.8611H56.9362V67.7341H53.6978C53.4385 66.9059 52.6659 66.3055 51.7522 66.3055C50.6262 66.3055 49.7135 67.2181 49.7135 68.3441C49.7135 69.4701 50.6262 70.3828 51.7522 70.3828C52.6654 70.3828 53.4385 69.7818 53.6978 68.9542H56.9362V75.8197C49.6777 74.3179 44.2734 67.8715 44.2734 60.2521C44.2734 52.6327 49.6772 46.1863 56.9362 44.6845V51.5489Z" fill="#081D0D"/>
</svg>
