<svg width="51" height="50" viewBox="0 0 51 50" fill="none" xmlns="http://www.w3.org/2000/svg">
<path d="M26.5762 0V12.9148H34.0425C34.4026 11.7656 35.4753 10.9311 36.7441 10.9311C38.3076 10.9311 39.5749 12.1984 39.5749 13.7619C39.5749 15.3254 38.3076 16.5927 36.7441 16.5927C35.4761 16.5927 34.4026 15.7582 34.0425 14.609H26.5762V24.1525H38.3373C38.6974 23.0033 39.7701 22.1688 41.0389 22.1688C42.6024 22.1688 43.8689 23.4361 43.8689 24.9996C43.8689 26.5631 42.6017 27.8304 41.0389 27.8304C39.7701 27.8304 38.6974 26.9959 38.3373 25.8467H26.5762V35.3903H34.0425C34.4026 34.2403 35.4753 33.4066 36.7441 33.4066C38.3076 33.4066 39.5749 34.6739 39.5749 36.2374C39.5749 37.8009 38.3076 39.0681 36.7441 39.0681C35.4761 39.0681 34.4026 38.2337 34.0425 37.0844H26.5762V50C39.6989 49.2101 50.0984 38.3228 50.0984 25.0019C50.0984 11.6772 39.6989 0.789173 26.5762 0Z" fill="#FFD268"/>
<path d="M0 24.9981C0 38.3191 10.3996 49.2064 23.5222 49.9963V0C10.3996 0.789173 0 11.6772 0 24.9981ZM20.5526 12.9148H16.0559C15.6959 11.7648 14.6231 10.9304 13.3543 10.9304C11.7908 10.9304 10.5235 12.1976 10.5235 13.7611C10.5235 15.3246 11.7908 16.5919 13.3543 16.5919C14.6223 16.5919 15.6959 15.7575 16.0559 14.6082H20.5526V24.1518H11.7611C11.4011 23.0018 10.3283 22.1673 9.05953 22.1673C7.49677 22.1673 6.22949 23.4346 6.22949 24.9981C6.22949 26.5616 7.49677 27.8289 9.05953 27.8289C10.3275 27.8289 11.4011 26.9945 11.7611 25.8452H20.5526V35.3888H16.0559C15.6959 34.2388 14.6231 33.4051 13.3543 33.4051C11.7908 33.4051 10.5235 34.6724 10.5235 36.2359C10.5235 37.7994 11.7908 39.0666 13.3543 39.0666C14.6223 39.0666 15.6959 38.2322 16.0559 37.0829H20.5526V46.6161C10.4738 44.5307 2.96961 35.5796 2.96961 24.9996C2.96961 14.4196 10.4731 5.46851 20.5526 3.38311V12.9148Z" fill="#FFD268"/>
</svg>
