<svg width="173" height="50" viewBox="0 0 173 50" fill="none" xmlns="http://www.w3.org/2000/svg">
<path d="M26.5762 0V12.9148H34.0425C34.4026 11.7656 35.4753 10.9311 36.7441 10.9311C38.3076 10.9311 39.5749 12.1984 39.5749 13.7619C39.5749 15.3254 38.3076 16.5927 36.7441 16.5927C35.4761 16.5927 34.4026 15.7582 34.0425 14.609H26.5762V24.1525H38.3373C38.6974 23.0033 39.7701 22.1688 41.0389 22.1688C42.6024 22.1688 43.8689 23.4361 43.8689 24.9996C43.8689 26.5631 42.6017 27.8304 41.0389 27.8304C39.7701 27.8304 38.6974 26.9959 38.3373 25.8467H26.5762V35.3903H34.0425C34.4026 34.2403 35.4753 33.4066 36.7441 33.4066C38.3076 33.4066 39.5749 34.6739 39.5749 36.2374C39.5749 37.8009 38.3076 39.0681 36.7441 39.0681C35.4761 39.0681 34.4026 38.2337 34.0425 37.0844H26.5762V50C39.6989 49.2101 50.0984 38.3228 50.0984 25.0019C50.0984 11.6772 39.6989 0.789173 26.5762 0Z" fill="#FFD268"/>
<path d="M0 24.9981C0 38.3191 10.3996 49.2064 23.5222 49.9963V0C10.3996 0.789173 0 11.6772 0 24.9981ZM20.5526 12.9148H16.0559C15.6959 11.7648 14.6231 10.9304 13.3543 10.9304C11.7908 10.9304 10.5235 12.1976 10.5235 13.7611C10.5235 15.3246 11.7908 16.5919 13.3543 16.5919C14.6223 16.5919 15.6959 15.7575 16.0559 14.6082H20.5526V24.1518H11.7611C11.4011 23.0018 10.3283 22.1673 9.05953 22.1673C7.49677 22.1673 6.22949 23.4346 6.22949 24.9981C6.22949 26.5616 7.49677 27.8289 9.05953 27.8289C10.3275 27.8289 11.4011 26.9945 11.7611 25.8452H20.5526V35.3888H16.0559C15.6959 34.2388 14.6231 33.4051 13.3543 33.4051C11.7908 33.4051 10.5235 34.6724 10.5235 36.2359C10.5235 37.7994 11.7908 39.0666 13.3543 39.0666C14.6223 39.0666 15.6959 38.2322 16.0559 37.0829H20.5526V46.6161C10.4738 44.5307 2.96961 35.5796 2.96961 24.9996C2.96961 14.4196 10.4731 5.46851 20.5526 3.38311V12.9148Z" fill="#FFD268"/>
<path d="M62.1977 34V14.176H70.1777C71.167 14.176 72.1097 14.2787 73.0057 14.484C73.9203 14.6707 74.7417 14.9973 75.4697 15.464C76.1977 15.9307 76.767 16.584 77.1777 17.424C77.607 18.2453 77.8217 19.3 77.8217 20.588C77.8217 21.54 77.663 22.3987 77.3457 23.164C77.0283 23.9293 76.5617 24.5827 75.9457 25.124C75.3297 25.6653 74.5923 26.0853 73.7337 26.384L78.1297 34H73.6217L69.7577 27.028H66.2017V34H62.1977ZM66.2017 23.472H69.8977C70.4763 23.472 70.999 23.4253 71.4657 23.332C71.951 23.22 72.3617 23.052 72.6977 22.828C73.0523 22.604 73.323 22.3053 73.5097 21.932C73.715 21.5587 73.8177 21.1013 73.8177 20.56C73.8363 19.8693 73.687 19.3373 73.3697 18.964C73.071 18.572 72.6417 18.3013 72.0817 18.152C71.5403 17.984 70.8963 17.9 70.1497 17.9H66.2017V23.472ZM87.4169 34.196C85.8676 34.196 84.5516 33.888 83.4689 33.272C82.3862 32.656 81.5556 31.788 80.9769 30.668C80.3982 29.5293 80.1089 28.204 80.1089 26.692C80.1089 25.1613 80.4076 23.8267 81.0049 22.688C81.6022 21.5307 82.4422 20.6253 83.5249 19.972C84.6262 19.3187 85.9236 18.992 87.4169 18.992C88.5369 18.992 89.5169 19.1787 90.3569 19.552C91.2156 19.9253 91.9342 20.448 92.5129 21.12C93.1102 21.792 93.5489 22.576 93.8289 23.472C94.1276 24.3493 94.2676 25.3013 94.2489 26.328C94.2489 26.5893 94.2396 26.8413 94.2209 27.084C94.2022 27.3267 94.1649 27.5693 94.1089 27.812H84.0009C84.0569 28.372 84.2156 28.8853 84.4769 29.352C84.7382 29.8187 85.1022 30.192 85.5689 30.472C86.0542 30.7333 86.6516 30.864 87.3609 30.864C87.8276 30.864 88.2569 30.8173 88.6489 30.724C89.0409 30.612 89.3769 30.444 89.6569 30.22C89.9369 29.996 90.1329 29.7347 90.2449 29.436H94.1089C93.8662 30.5373 93.4089 31.4427 92.7369 32.152C92.0836 32.8613 91.2902 33.384 90.3569 33.72C89.4236 34.0373 88.4436 34.196 87.4169 34.196ZM84.0849 25.068H90.4969C90.4782 24.564 90.3476 24.0973 90.1049 23.668C89.8809 23.22 89.5356 22.8653 89.0689 22.604C88.6209 22.324 88.0422 22.184 87.3329 22.184C86.6236 22.184 86.0262 22.324 85.5409 22.604C85.0742 22.884 84.7196 23.248 84.4769 23.696C84.2529 24.1253 84.1222 24.5827 84.0849 25.068ZM96.7744 39.516V19.244H100.442L100.638 21.092C101.236 20.364 101.917 19.832 102.682 19.496C103.466 19.16 104.325 18.992 105.258 18.992C106.714 18.992 107.918 19.328 108.87 20C109.822 20.672 110.532 21.5867 110.998 22.744C111.484 23.8827 111.726 25.1613 111.726 26.58C111.726 28.036 111.474 29.3427 110.97 30.5C110.485 31.6387 109.748 32.544 108.758 33.216C107.769 33.8693 106.537 34.196 105.062 34.196C104.428 34.196 103.83 34.1213 103.27 33.972C102.71 33.8227 102.216 33.6267 101.786 33.384C101.357 33.1227 100.993 32.8333 100.694 32.516V39.516H96.7744ZM104.39 30.668C105.268 30.668 105.958 30.472 106.462 30.08C106.966 29.688 107.321 29.1933 107.526 28.596C107.732 27.98 107.834 27.3453 107.834 26.692C107.834 25.9827 107.722 25.3107 107.498 24.676C107.274 24.0413 106.901 23.5373 106.378 23.164C105.874 22.772 105.184 22.576 104.306 22.576C103.522 22.576 102.86 22.772 102.318 23.164C101.777 23.5373 101.366 24.032 101.086 24.648C100.806 25.264 100.666 25.9267 100.666 26.636C100.666 27.3453 100.797 28.008 101.058 28.624C101.338 29.24 101.749 29.7347 102.29 30.108C102.85 30.4813 103.55 30.668 104.39 30.668ZM118.923 34.196C118.251 34.196 117.598 34.112 116.963 33.944C116.347 33.7573 115.796 33.4773 115.311 33.104C114.826 32.7307 114.443 32.264 114.163 31.704C113.883 31.144 113.743 30.4907 113.743 29.744C113.743 28.736 113.948 27.9333 114.359 27.336C114.77 26.72 115.32 26.2533 116.011 25.936C116.702 25.6187 117.495 25.404 118.391 25.292C119.306 25.18 120.248 25.124 121.219 25.124H123.347C123.347 24.5827 123.244 24.1067 123.039 23.696C122.852 23.2667 122.563 22.94 122.171 22.716C121.779 22.4733 121.275 22.352 120.659 22.352C120.267 22.352 119.884 22.408 119.511 22.52C119.156 22.6133 118.858 22.7533 118.615 22.94C118.372 23.1267 118.214 23.3693 118.139 23.668H114.163C114.275 22.8467 114.536 22.1467 114.947 21.568C115.358 20.9707 115.871 20.4853 116.487 20.112C117.103 19.7387 117.775 19.468 118.503 19.3C119.25 19.1133 120.015 19.02 120.799 19.02C122.946 19.02 124.532 19.636 125.559 20.868C126.586 22.0813 127.099 23.808 127.099 26.048V34H123.571L123.515 32.096C123.048 32.7493 122.516 33.2253 121.919 33.524C121.34 33.8227 120.78 34.0093 120.239 34.084C119.698 34.1587 119.259 34.196 118.923 34.196ZM119.819 31.088C120.472 31.088 121.07 30.9573 121.611 30.696C122.152 30.4347 122.582 30.08 122.899 29.632C123.216 29.184 123.375 28.68 123.375 28.12V27.756H120.687C120.295 27.756 119.912 27.7747 119.539 27.812C119.184 27.8493 118.858 27.924 118.559 28.036C118.279 28.1293 118.055 28.288 117.887 28.512C117.719 28.736 117.635 29.0347 117.635 29.408C117.635 29.7813 117.728 30.0987 117.915 30.36C118.12 30.6027 118.391 30.7893 118.727 30.92C119.063 31.032 119.427 31.088 119.819 31.088ZM130.161 34V19.244H134.081V34H130.161ZM132.121 17.76C131.393 17.76 130.805 17.5453 130.357 17.116C129.909 16.668 129.685 16.0987 129.685 15.408C129.685 14.68 129.918 14.092 130.385 13.644C130.852 13.196 131.44 12.972 132.149 12.972C132.802 12.972 133.362 13.196 133.829 13.644C134.314 14.0733 134.557 14.652 134.557 15.38C134.557 16.0893 134.324 16.668 133.857 17.116C133.409 17.5453 132.83 17.76 132.121 17.76ZM137.188 34V19.244H140.716L140.968 21.008C141.342 20.448 141.762 20.028 142.228 19.748C142.695 19.4493 143.18 19.2533 143.684 19.16C144.188 19.048 144.702 18.992 145.224 18.992C145.467 18.992 145.691 19.0013 145.896 19.02C146.102 19.02 146.251 19.02 146.344 19.02V22.8H145.42C144.543 22.8 143.778 22.9493 143.124 23.248C142.471 23.5467 141.967 24.0133 141.612 24.648C141.276 25.2827 141.108 26.0947 141.108 27.084V34H137.188ZM148.181 34V19.244H152.101V34H148.181ZM150.141 17.76C149.413 17.76 148.825 17.5453 148.377 17.116C147.929 16.668 147.705 16.0987 147.705 15.408C147.705 14.68 147.938 14.092 148.405 13.644C148.871 13.196 149.459 12.972 150.169 12.972C150.822 12.972 151.382 13.196 151.849 13.644C152.334 14.0733 152.577 14.652 152.577 15.38C152.577 16.0893 152.343 16.668 151.877 17.116C151.429 17.5453 150.85 17.76 150.141 17.76ZM161.9 34C160.668 34 159.632 33.8507 158.792 33.552C157.971 33.2533 157.345 32.7493 156.916 32.04C156.505 31.312 156.3 30.3227 156.3 29.072V22.744H154.116V19.244H156.3V15.296H160.22V19.244H163.44V22.744H160.22V28.512C160.22 29.128 160.332 29.6133 160.556 29.968C160.78 30.3227 161.284 30.5 162.068 30.5H163.3V34H161.9Z" fill="white"/>
<path d="M167.87 34.364C167.198 34.364 166.629 34.1587 166.162 33.748C165.695 33.3373 165.462 32.7493 165.462 31.984C165.462 31.2 165.695 30.584 166.162 30.136C166.647 29.688 167.217 29.464 167.87 29.464C168.523 29.464 169.083 29.688 169.55 30.136C170.017 30.5653 170.25 31.172 170.25 31.956C170.25 32.74 170.017 33.3373 169.55 33.748C169.083 34.1587 168.523 34.364 167.87 34.364Z" fill="#FFD268"/>
</svg>
