<svg width="175" height="41" viewBox="0 0 175 41" fill="none" xmlns="http://www.w3.org/2000/svg">
<path d="M57.0889 26.6287H69.0409V23.0287H61.3369V9.46875H57.0889V26.6287Z" fill="#081D0D"/>
<path d="M76.593 24.2299C74.889 24.2299 74.001 22.7419 74.001 20.5099C74.001 18.2779 74.889 16.7659 76.593 16.7659C78.297 16.7659 79.209 18.2779 79.209 20.5099C79.209 22.7419 78.297 24.2299 76.593 24.2299ZM76.617 27.0139C80.577 27.0139 83.169 24.2059 83.169 20.5099C83.169 16.8139 80.577 14.0059 76.617 14.0059C72.681 14.0059 70.041 16.8139 70.041 20.5099C70.041 24.2059 72.681 27.0139 76.617 27.0139Z" fill="#081D0D"/>
<path d="M90.4329 30.8765C92.2569 30.8765 93.8649 30.4685 94.9449 29.5085C95.9289 28.6205 96.577 27.2765 96.577 25.4285V14.3405H92.8329V15.6605H92.785C92.0649 14.6285 90.9609 13.9805 89.3289 13.9805C86.2809 13.9805 84.1689 16.5245 84.1689 20.1245C84.1689 23.8925 86.7369 25.9565 89.4969 25.9565C90.9849 25.9565 91.9209 25.3565 92.6409 24.5405H92.7369V25.7645C92.7369 27.2525 92.0409 28.1165 90.3849 28.1165C89.0889 28.1165 88.4409 27.5645 88.2249 26.9165H84.4329C84.8169 29.4845 87.0489 30.8765 90.4329 30.8765ZM90.409 23.0525C88.945 23.0525 87.9849 21.8525 87.9849 20.0045C87.9849 18.1325 88.945 16.9325 90.409 16.9325C92.041 16.9325 92.9049 18.3245 92.9049 19.9805C92.9049 21.7085 92.113 23.0525 90.409 23.0525Z" fill="#081D0D"/>
<path d="M104.129 24.2299C102.425 24.2299 101.537 22.7419 101.537 20.5099C101.537 18.2779 102.425 16.7659 104.129 16.7659C105.833 16.7659 106.745 18.2779 106.745 20.5099C106.745 22.7419 105.833 24.2299 104.129 24.2299ZM104.153 27.0139C108.113 27.0139 110.705 24.2059 110.705 20.5099C110.705 16.8139 108.113 14.0059 104.153 14.0059C100.217 14.0059 97.5771 16.8139 97.5771 20.5099C97.5771 24.2059 100.217 27.0139 104.153 27.0139Z" fill="#081D0D"/>
<path d="M111.705 26.6287H115.617V14.3407H111.705V26.6287ZM111.705 12.6367H115.617V9.46875H111.705V12.6367Z" fill="#081D0D"/>
<path d="M116.617 30.6845H120.529V25.3565H120.577C121.345 26.3885 122.473 27.0125 124.057 27.0125C127.273 27.0125 129.409 24.4685 129.409 20.4845C129.409 16.7885 127.417 13.9805 124.153 13.9805C122.473 13.9805 121.273 14.7245 120.433 15.8285H120.361V14.3405H116.617V30.6845ZM123.049 23.9885C121.369 23.9885 120.409 22.6205 120.409 20.6285C120.409 18.6365 121.273 17.1245 122.977 17.1245C124.657 17.1245 125.449 18.5165 125.449 20.6285C125.449 22.7165 124.537 23.9885 123.049 23.9885Z" fill="#081D0D"/>
<path d="M136.385 27.0125C139.601 27.0125 141.977 25.6205 141.977 22.9325C141.977 19.7885 139.433 19.2365 137.273 18.8765C135.713 18.5885 134.321 18.4685 134.321 17.6045C134.321 16.8365 135.065 16.4765 136.025 16.4765C137.105 16.4765 137.849 16.8125 137.993 17.9165H141.593C141.401 15.4925 139.529 13.9805 136.049 13.9805C133.145 13.9805 130.745 15.3245 130.745 17.9165C130.745 20.7965 133.025 21.3725 135.161 21.7325C136.793 22.0205 138.281 22.1405 138.281 23.2445C138.281 24.0365 137.537 24.4685 136.361 24.4685C135.065 24.4685 134.249 23.8685 134.105 22.6445H130.409C130.529 25.3565 132.785 27.0125 136.385 27.0125Z" fill="#081D0D"/>
<path d="M147.297 26.9898C149.001 26.9898 150.081 26.3178 150.969 25.1178H151.041V26.6298H154.785V14.3418H150.873V21.2058C150.873 22.6698 150.057 23.6778 148.713 23.6778C147.465 23.6778 146.865 22.9338 146.865 21.5898V14.3418H142.977V22.4058C142.977 25.1418 144.465 26.9898 147.297 26.9898Z" fill="#081D0D"/>
<path d="M155.785 26.6285H159.697V19.7405C159.697 18.2765 160.417 17.2445 161.641 17.2445C162.817 17.2445 163.369 18.0125 163.369 19.3325V26.6285H167.281V19.7405C167.281 18.2765 167.977 17.2445 169.225 17.2445C170.401 17.2445 170.953 18.0125 170.953 19.3325V26.6285H174.865V18.6365C174.865 15.8765 173.473 13.9805 170.689 13.9805C169.105 13.9805 167.785 14.6525 166.825 16.1405H166.777C166.153 14.8205 164.929 13.9805 163.321 13.9805C161.545 13.9805 160.369 14.8205 159.601 16.0925H159.529V14.3405H155.785V26.6285Z" fill="#081D0D"/>
<path fill-rule="evenodd" clip-rule="evenodd" d="M20.8648 40.1728C31.9105 40.1728 40.8648 31.2185 40.8648 20.1728C40.8648 9.12716 31.9105 0.172852 20.8648 0.172852C9.81903 0.172852 0.864746 9.12716 0.864746 20.1728C0.864746 31.2185 9.81903 40.1728 20.8648 40.1728ZM27.1041 9.48969C27.4078 8.4109 26.3609 7.77298 25.4048 8.45415L12.0579 17.9624C11.021 18.7011 11.1841 20.1728 12.3029 20.1728H15.8175V20.1456H22.6673L17.086 22.1149L14.6255 30.856C14.3218 31.9348 15.3686 32.5727 16.3248 31.8915L29.6717 22.3833C30.7086 21.6446 30.5454 20.1728 29.4267 20.1728H24.0969L27.1041 9.48969Z" fill="#FFD268"/>
</svg>
