<svg width="174" height="41" viewBox="0 0 174 41" fill="none" xmlns="http://www.w3.org/2000/svg">
<path d="M56.0889 27.0731H68.0409V23.4731H60.3369V9.91309H56.0889V27.0731Z" fill="#081D0D"/>
<path d="M75.593 24.6742C73.889 24.6742 73.001 23.1862 73.001 20.9542C73.001 18.7222 73.889 17.2102 75.593 17.2102C77.297 17.2102 78.209 18.7222 78.209 20.9542C78.209 23.1862 77.297 24.6742 75.593 24.6742ZM75.617 27.4582C79.577 27.4582 82.169 24.6502 82.169 20.9542C82.169 17.2582 79.577 14.4502 75.617 14.4502C71.681 14.4502 69.041 17.2582 69.041 20.9542C69.041 24.6502 71.681 27.4582 75.617 27.4582Z" fill="#081D0D"/>
<path d="M89.4329 31.3208C91.2569 31.3208 92.8649 30.9128 93.9449 29.9528C94.9289 29.0648 95.577 27.7208 95.577 25.8728V14.7848H91.8329V16.1048H91.785C91.0649 15.0728 89.9609 14.4248 88.3289 14.4248C85.2809 14.4248 83.1689 16.9688 83.1689 20.5688C83.1689 24.3368 85.7369 26.4008 88.4969 26.4008C89.9849 26.4008 90.9209 25.8008 91.6409 24.9848H91.7369V26.2088C91.7369 27.6968 91.0409 28.5608 89.3849 28.5608C88.0889 28.5608 87.4409 28.0088 87.2249 27.3608H83.4329C83.8169 29.9288 86.0489 31.3208 89.4329 31.3208ZM89.409 23.4968C87.945 23.4968 86.9849 22.2968 86.9849 20.4488C86.9849 18.5768 87.945 17.3768 89.409 17.3768C91.041 17.3768 91.9049 18.7688 91.9049 20.4248C91.9049 22.1528 91.113 23.4968 89.409 23.4968Z" fill="#081D0D"/>
<path d="M103.129 24.6742C101.425 24.6742 100.537 23.1862 100.537 20.9542C100.537 18.7222 101.425 17.2102 103.129 17.2102C104.833 17.2102 105.745 18.7222 105.745 20.9542C105.745 23.1862 104.833 24.6742 103.129 24.6742ZM103.153 27.4582C107.113 27.4582 109.705 24.6502 109.705 20.9542C109.705 17.2582 107.113 14.4502 103.153 14.4502C99.2171 14.4502 96.5771 17.2582 96.5771 20.9542C96.5771 24.6502 99.2171 27.4582 103.153 27.4582Z" fill="#081D0D"/>
<path d="M110.705 27.0731H114.617V14.7851H110.705V27.0731ZM110.705 13.0811H114.617V9.91309H110.705V13.0811Z" fill="#081D0D"/>
<path d="M115.617 31.1288H119.529V25.8008H119.577C120.345 26.8328 121.473 27.4568 123.057 27.4568C126.273 27.4568 128.409 24.9128 128.409 20.9288C128.409 17.2328 126.417 14.4248 123.153 14.4248C121.473 14.4248 120.273 15.1688 119.433 16.2728H119.361V14.7848H115.617V31.1288ZM122.049 24.4328C120.369 24.4328 119.409 23.0648 119.409 21.0728C119.409 19.0808 120.273 17.5688 121.977 17.5688C123.657 17.5688 124.449 18.9608 124.449 21.0728C124.449 23.1608 123.537 24.4328 122.049 24.4328Z" fill="#081D0D"/>
<path d="M135.385 27.4568C138.601 27.4568 140.977 26.0648 140.977 23.3768C140.977 20.2328 138.433 19.6808 136.273 19.3208C134.713 19.0328 133.321 18.9128 133.321 18.0488C133.321 17.2808 134.065 16.9208 135.025 16.9208C136.105 16.9208 136.849 17.2568 136.993 18.3608H140.593C140.401 15.9368 138.529 14.4248 135.049 14.4248C132.145 14.4248 129.745 15.7688 129.745 18.3608C129.745 21.2408 132.025 21.8168 134.161 22.1768C135.793 22.4648 137.281 22.5848 137.281 23.6888C137.281 24.4808 136.537 24.9128 135.361 24.9128C134.065 24.9128 133.249 24.3128 133.105 23.0888H129.409C129.529 25.8008 131.785 27.4568 135.385 27.4568Z" fill="#081D0D"/>
<path d="M146.297 27.4341C148.001 27.4341 149.081 26.7621 149.969 25.5621H150.041V27.0741H153.785V14.7861H149.873V21.6501C149.873 23.1141 149.057 24.1221 147.713 24.1221C146.465 24.1221 145.865 23.3781 145.865 22.0341V14.7861H141.977V22.8501C141.977 25.5861 143.465 27.4341 146.297 27.4341Z" fill="#081D0D"/>
<path d="M154.785 27.0728H158.697V20.1848C158.697 18.7208 159.417 17.6888 160.641 17.6888C161.817 17.6888 162.369 18.4568 162.369 19.7768V27.0728H166.281V20.1848C166.281 18.7208 166.977 17.6888 168.225 17.6888C169.401 17.6888 169.953 18.4568 169.953 19.7768V27.0728H173.865V19.0808C173.865 16.3208 172.473 14.4248 169.689 14.4248C168.105 14.4248 166.785 15.0968 165.825 16.5848H165.777C165.153 15.2648 163.929 14.4248 162.321 14.4248C160.545 14.4248 159.369 15.2648 158.601 16.5368H158.529V14.7848H154.785V27.0728Z" fill="#081D0D"/>
<path d="M25.3171 1.67056L21.3841 0.616699L18.0697 12.9863L15.0774 1.81894L11.1443 2.8728L14.3773 14.9383L6.32469 6.88568L3.4455 9.76487L12.2782 18.5977L1.27847 15.6503L0.224609 19.5833L12.2432 22.8037C12.1056 22.2102 12.0328 21.5918 12.0328 20.9564C12.0328 16.4588 15.6788 12.8128 20.1764 12.8128C24.674 12.8128 28.32 16.4588 28.32 20.9564C28.32 21.5877 28.2481 22.2023 28.1122 22.7923L39.0349 25.719L40.0887 21.786L28.0223 18.5528L39.0228 15.6052L37.9689 11.6722L25.903 14.9052L33.9556 6.85262L31.0764 3.97343L22.3662 12.6837L25.3171 1.67056Z" fill="#FFD268"/>
<path d="M28.1011 22.8384C27.7639 24.264 27.052 25.5447 26.0752 26.5708L33.9882 34.4839L36.8674 31.6047L28.1011 22.8384Z" fill="#FFD268"/>
<path d="M25.9953 26.6538C25.0067 27.6635 23.7574 28.417 22.3564 28.8053L25.2358 39.5513L29.1688 38.4974L25.9953 26.6538Z" fill="#FFD268"/>
<path d="M22.2096 28.8441C21.5596 29.0112 20.8783 29.1 20.1762 29.1C19.424 29.1 18.6956 28.998 18.0041 28.8071L15.1221 39.5629L19.0551 40.6167L22.2096 28.8441Z" fill="#FFD268"/>
<path d="M17.865 28.7678C16.4854 28.3602 15.2583 27.5971 14.2899 26.5845L6.35742 34.517L9.23661 37.3962L17.865 28.7678Z" fill="#FFD268"/>
<path d="M14.2245 26.5138C13.2727 25.4948 12.5794 24.2312 12.2494 22.8276L1.29102 25.7639L2.34487 29.6969L14.2245 26.5138Z" fill="#FFD268"/>
</svg>
