<svg width="174" height="41" viewBox="0 0 174 41" fill="none" xmlns="http://www.w3.org/2000/svg">
<path d="M56.0889 26.5169H68.0409V22.9169H60.3369V9.35693H56.0889V26.5169Z" fill="#081D0D"/>
<path d="M75.593 24.118C73.889 24.118 73.001 22.63 73.001 20.398C73.001 18.166 73.889 16.654 75.593 16.654C77.297 16.654 78.209 18.166 78.209 20.398C78.209 22.63 77.297 24.118 75.593 24.118ZM75.617 26.902C79.577 26.902 82.169 24.094 82.169 20.398C82.169 16.702 79.577 13.894 75.617 13.894C71.681 13.894 69.041 16.702 69.041 20.398C69.041 24.094 71.681 26.902 75.617 26.902Z" fill="#081D0D"/>
<path d="M89.4329 30.7647C91.2569 30.7647 92.8649 30.3567 93.9449 29.3967C94.9289 28.5087 95.577 27.1647 95.577 25.3167V14.2287H91.8329V15.5487H91.785C91.0649 14.5167 89.9609 13.8687 88.3289 13.8687C85.2809 13.8687 83.1689 16.4127 83.1689 20.0127C83.1689 23.7807 85.7369 25.8447 88.4969 25.8447C89.9849 25.8447 90.9209 25.2447 91.6409 24.4287H91.7369V25.6527C91.7369 27.1407 91.0409 28.0047 89.3849 28.0047C88.0889 28.0047 87.4409 27.4527 87.2249 26.8047H83.4329C83.8169 29.3727 86.0489 30.7647 89.4329 30.7647ZM89.409 22.9407C87.945 22.9407 86.9849 21.7407 86.9849 19.8927C86.9849 18.0207 87.945 16.8207 89.409 16.8207C91.041 16.8207 91.9049 18.2127 91.9049 19.8687C91.9049 21.5967 91.113 22.9407 89.409 22.9407Z" fill="#081D0D"/>
<path d="M103.129 24.118C101.425 24.118 100.537 22.63 100.537 20.398C100.537 18.166 101.425 16.654 103.129 16.654C104.833 16.654 105.745 18.166 105.745 20.398C105.745 22.63 104.833 24.118 103.129 24.118ZM103.153 26.902C107.113 26.902 109.705 24.094 109.705 20.398C109.705 16.702 107.113 13.894 103.153 13.894C99.2171 13.894 96.5771 16.702 96.5771 20.398C96.5771 24.094 99.2171 26.902 103.153 26.902Z" fill="#081D0D"/>
<path d="M110.705 26.5169H114.617V14.2289H110.705V26.5169ZM110.705 12.5249H114.617V9.35693H110.705V12.5249Z" fill="#081D0D"/>
<path d="M115.617 30.5727H119.529V25.2447H119.577C120.345 26.2767 121.473 26.9007 123.057 26.9007C126.273 26.9007 128.409 24.3567 128.409 20.3727C128.409 16.6767 126.417 13.8687 123.153 13.8687C121.473 13.8687 120.273 14.6127 119.433 15.7167H119.361V14.2287H115.617V30.5727ZM122.049 23.8767C120.369 23.8767 119.409 22.5087 119.409 20.5167C119.409 18.5247 120.273 17.0127 121.977 17.0127C123.657 17.0127 124.449 18.4047 124.449 20.5167C124.449 22.6047 123.537 23.8767 122.049 23.8767Z" fill="#081D0D"/>
<path d="M135.385 26.9007C138.601 26.9007 140.977 25.5087 140.977 22.8207C140.977 19.6767 138.433 19.1247 136.273 18.7647C134.713 18.4767 133.321 18.3567 133.321 17.4927C133.321 16.7247 134.065 16.3647 135.025 16.3647C136.105 16.3647 136.849 16.7007 136.993 17.8047H140.593C140.401 15.3807 138.529 13.8687 135.049 13.8687C132.145 13.8687 129.745 15.2127 129.745 17.8047C129.745 20.6847 132.025 21.2607 134.161 21.6207C135.793 21.9087 137.281 22.0287 137.281 23.1327C137.281 23.9247 136.537 24.3567 135.361 24.3567C134.065 24.3567 133.249 23.7567 133.105 22.5327H129.409C129.529 25.2447 131.785 26.9007 135.385 26.9007Z" fill="#081D0D"/>
<path d="M146.297 26.878C148.001 26.878 149.081 26.206 149.969 25.006H150.041V26.518H153.785V14.23H149.873V21.094C149.873 22.558 149.057 23.566 147.713 23.566C146.465 23.566 145.865 22.822 145.865 21.478V14.23H141.977V22.294C141.977 25.03 143.465 26.878 146.297 26.878Z" fill="#081D0D"/>
<path d="M154.785 26.5167H158.697V19.6287C158.697 18.1647 159.417 17.1327 160.641 17.1327C161.817 17.1327 162.369 17.9007 162.369 19.2207V26.5167H166.281V19.6287C166.281 18.1647 166.977 17.1327 168.225 17.1327C169.401 17.1327 169.953 17.9007 169.953 19.2207V26.5167H173.865V18.5247C173.865 15.7647 172.473 13.8687 169.689 13.8687C168.105 13.8687 166.785 14.5407 165.825 16.0287H165.777C165.153 14.7087 163.929 13.8687 162.321 13.8687C160.545 13.8687 159.369 14.7087 158.601 15.9807H158.529V14.2287H154.785V26.5167Z" fill="#081D0D"/>
<path d="M25.3171 1.11441L21.3841 0.0605469L18.0697 12.4301L15.0774 1.26279L11.1443 2.31665L14.3773 14.3821L6.32469 6.32953L3.4455 9.20872L12.2782 18.0415L1.27847 15.0941L0.224609 19.0271L12.2432 22.2475C12.1056 21.654 12.0328 21.0356 12.0328 20.4002C12.0328 15.9026 15.6788 12.2566 20.1764 12.2566C24.674 12.2566 28.32 15.9026 28.32 20.4002C28.32 21.0315 28.2481 21.6461 28.1122 22.2361L39.0349 25.1628L40.0887 21.2298L28.0223 17.9966L39.0228 15.049L37.9689 11.116L25.903 14.349L33.9556 6.29647L31.0764 3.41728L22.3662 12.1275L25.3171 1.11441Z" fill="#FFD268"/>
<path d="M28.1011 22.2822C27.7639 23.7078 27.052 24.9885 26.0752 26.0146L33.9882 33.9277L36.8674 31.0485L28.1011 22.2822Z" fill="#FFD268"/>
<path d="M25.9953 26.0977C25.0067 27.1074 23.7574 27.8609 22.3564 28.2492L25.2358 38.9952L29.1688 37.9413L25.9953 26.0977Z" fill="#FFD268"/>
<path d="M22.2096 28.288C21.5596 28.4551 20.8783 28.5439 20.1762 28.5439C19.424 28.5439 18.6956 28.4419 18.0041 28.251L15.1221 39.0068L19.0551 40.0606L22.2096 28.288Z" fill="#FFD268"/>
<path d="M17.865 28.2116C16.4854 27.804 15.2583 27.0409 14.2899 26.0283L6.35742 33.9608L9.23661 36.84L17.865 28.2116Z" fill="#FFD268"/>
<path d="M14.2245 25.9577C13.2727 24.9387 12.5794 23.6751 12.2494 22.2715L1.29102 25.2078L2.34487 29.1408L14.2245 25.9577Z" fill="#FFD268"/>
</svg>
