<svg width="174" height="41" viewBox="0 0 174 41" fill="none" xmlns="http://www.w3.org/2000/svg">
<path d="M56.0889 27.0726H68.0409V23.4726H60.3369V9.9126H56.0889V27.0726Z" fill="#081D0D"/>
<path d="M75.593 24.6737C73.889 24.6737 73.001 23.1857 73.001 20.9537C73.001 18.7217 73.889 17.2097 75.593 17.2097C77.297 17.2097 78.209 18.7217 78.209 20.9537C78.209 23.1857 77.297 24.6737 75.593 24.6737ZM75.617 27.4577C79.577 27.4577 82.169 24.6497 82.169 20.9537C82.169 17.2577 79.577 14.4497 75.617 14.4497C71.681 14.4497 69.041 17.2577 69.041 20.9537C69.041 24.6497 71.681 27.4577 75.617 27.4577Z" fill="#081D0D"/>
<path d="M89.4329 31.3203C91.2569 31.3203 92.8649 30.9123 93.9449 29.9523C94.9289 29.0643 95.577 27.7203 95.577 25.8723V14.7843H91.8329V16.1043H91.785C91.0649 15.0723 89.9609 14.4243 88.3289 14.4243C85.2809 14.4243 83.1689 16.9683 83.1689 20.5683C83.1689 24.3363 85.7369 26.4003 88.4969 26.4003C89.9849 26.4003 90.9209 25.8003 91.6409 24.9843H91.7369V26.2083C91.7369 27.6963 91.0409 28.5603 89.3849 28.5603C88.0889 28.5603 87.4409 28.0083 87.2249 27.3603H83.4329C83.8169 29.9283 86.0489 31.3203 89.4329 31.3203ZM89.409 23.4963C87.945 23.4963 86.9849 22.2963 86.9849 20.4483C86.9849 18.5763 87.945 17.3763 89.409 17.3763C91.041 17.3763 91.9049 18.7683 91.9049 20.4243C91.9049 22.1523 91.113 23.4963 89.409 23.4963Z" fill="#081D0D"/>
<path d="M103.129 24.6737C101.425 24.6737 100.537 23.1857 100.537 20.9537C100.537 18.7217 101.425 17.2097 103.129 17.2097C104.833 17.2097 105.745 18.7217 105.745 20.9537C105.745 23.1857 104.833 24.6737 103.129 24.6737ZM103.153 27.4577C107.113 27.4577 109.705 24.6497 109.705 20.9537C109.705 17.2577 107.113 14.4497 103.153 14.4497C99.2171 14.4497 96.5771 17.2577 96.5771 20.9537C96.5771 24.6497 99.2171 27.4577 103.153 27.4577Z" fill="#081D0D"/>
<path d="M110.705 27.0726H114.617V14.7846H110.705V27.0726ZM110.705 13.0806H114.617V9.9126H110.705V13.0806Z" fill="#081D0D"/>
<path d="M115.617 31.1283H119.529V25.8003H119.577C120.345 26.8323 121.473 27.4563 123.057 27.4563C126.273 27.4563 128.409 24.9123 128.409 20.9283C128.409 17.2323 126.417 14.4243 123.153 14.4243C121.473 14.4243 120.273 15.1683 119.433 16.2723H119.361V14.7843H115.617V31.1283ZM122.049 24.4323C120.369 24.4323 119.409 23.0643 119.409 21.0723C119.409 19.0803 120.273 17.5683 121.977 17.5683C123.657 17.5683 124.449 18.9603 124.449 21.0723C124.449 23.1603 123.537 24.4323 122.049 24.4323Z" fill="#081D0D"/>
<path d="M135.385 27.4563C138.601 27.4563 140.977 26.0643 140.977 23.3763C140.977 20.2323 138.433 19.6803 136.273 19.3203C134.713 19.0323 133.321 18.9123 133.321 18.0483C133.321 17.2803 134.065 16.9203 135.025 16.9203C136.105 16.9203 136.849 17.2563 136.993 18.3603H140.593C140.401 15.9363 138.529 14.4243 135.049 14.4243C132.145 14.4243 129.745 15.7683 129.745 18.3603C129.745 21.2403 132.025 21.8163 134.161 22.1763C135.793 22.4643 137.281 22.5843 137.281 23.6883C137.281 24.4803 136.537 24.9123 135.361 24.9123C134.065 24.9123 133.249 24.3123 133.105 23.0883H129.409C129.529 25.8003 131.785 27.4563 135.385 27.4563Z" fill="#081D0D"/>
<path d="M146.297 27.4336C148.001 27.4336 149.081 26.7616 149.969 25.5616H150.041V27.0736H153.785V14.7856H149.873V21.6496C149.873 23.1136 149.057 24.1216 147.713 24.1216C146.465 24.1216 145.865 23.3776 145.865 22.0336V14.7856H141.977V22.8496C141.977 25.5856 143.465 27.4336 146.297 27.4336Z" fill="#081D0D"/>
<path d="M154.785 27.0723H158.697V20.1843C158.697 18.7203 159.417 17.6883 160.641 17.6883C161.817 17.6883 162.369 18.4563 162.369 19.7763V27.0723H166.281V20.1843C166.281 18.7203 166.977 17.6883 168.225 17.6883C169.401 17.6883 169.953 18.4563 169.953 19.7763V27.0723H173.865V19.0803C173.865 16.3203 172.473 14.4243 169.689 14.4243C168.105 14.4243 166.785 15.0963 165.825 16.5843H165.777C165.153 15.2643 163.929 14.4243 162.321 14.4243C160.545 14.4243 159.369 15.2643 158.601 16.5363H158.529V14.7843H154.785V27.0723Z" fill="#081D0D"/>
<path fill-rule="evenodd" clip-rule="evenodd" d="M20.2246 40.6167C31.2703 40.6167 40.2246 31.6624 40.2246 20.6167C40.2246 9.57101 31.2703 0.616699 20.2246 0.616699C9.1789 0.616699 0.224609 9.57101 0.224609 20.6167C0.224609 31.6624 9.1789 40.6167 20.2246 40.6167ZM26.4639 9.93354C26.7676 8.85475 25.7207 8.21683 24.7646 8.898L11.4177 18.4063C10.3808 19.145 10.5439 20.6167 11.6627 20.6167H15.1773V20.5895H22.0271L16.4458 22.5588L13.9853 31.2999C13.6816 32.3787 14.7284 33.0166 15.6846 32.3354L29.0315 22.8272C30.0684 22.0885 29.9052 20.6167 28.7865 20.6167H23.4567L26.4639 9.93354Z" fill="#FFD268"/>
</svg>
