<svg width="175" height="41" viewBox="0 0 175 41" fill="none" xmlns="http://www.w3.org/2000/svg">
<path fill-rule="evenodd" clip-rule="evenodd" d="M26.1963 12.302C24.5518 11.2032 22.6184 10.6167 20.6406 10.6167V0.616699C24.5962 0.616699 28.463 1.78968 31.752 3.98731C35.041 6.18493 37.6044 9.30851 39.1182 12.963C40.6319 16.6175 41.028 20.6389 40.2563 24.5185C39.4846 28.3981 37.5798 31.9618 34.7827 34.7588C31.9857 37.5559 28.422 39.4607 24.5424 40.2324C20.6628 41.0041 16.6414 40.608 12.9869 39.0943C9.33243 37.5805 6.20885 35.0171 4.01123 31.7281C1.81361 28.4391 0.640625 24.5723 0.640625 20.6167H10.6406C10.6406 22.5945 11.2271 24.5279 12.3259 26.1724C13.4247 27.8169 14.9865 29.0986 16.8138 29.8555C18.641 30.6124 20.6517 30.8104 22.5915 30.4245C24.5313 30.0387 26.3131 29.0863 27.7117 27.6878C29.1102 26.2892 30.0626 24.5074 30.4484 22.5676C30.8343 20.6278 30.6363 18.6171 29.8794 16.7899C29.1225 14.9626 27.8408 13.4008 26.1963 12.302Z" fill="#FFD268"/>
<path fill-rule="evenodd" clip-rule="evenodd" d="M10.6406 0.616705C10.6406 1.92992 10.382 3.23028 9.87942 4.44354C9.37687 5.65679 8.64028 6.75918 7.71169 7.68777C6.78311 8.61636 5.68072 9.35295 4.46746 9.8555C3.2542 10.358 1.95384 10.6167 0.640625 10.6167L0.640625 20.6167C3.26706 20.6167 5.86778 20.0994 8.2943 19.0943C10.7208 18.0892 12.9256 16.616 14.7827 14.7588C16.6399 12.9017 18.1131 10.6969 19.1182 8.27037C20.1233 5.84385 20.6406 3.24313 20.6406 0.616699L10.6406 0.616705Z" fill="#FFD268"/>
<path d="M57.0889 27.0726H69.0409V23.4726H61.3369V9.9126H57.0889V27.0726Z" fill="#081D0D"/>
<path d="M76.593 24.6737C74.889 24.6737 74.001 23.1857 74.001 20.9537C74.001 18.7217 74.889 17.2097 76.593 17.2097C78.297 17.2097 79.209 18.7217 79.209 20.9537C79.209 23.1857 78.297 24.6737 76.593 24.6737ZM76.617 27.4577C80.577 27.4577 83.169 24.6497 83.169 20.9537C83.169 17.2577 80.577 14.4497 76.617 14.4497C72.681 14.4497 70.041 17.2577 70.041 20.9537C70.041 24.6497 72.681 27.4577 76.617 27.4577Z" fill="#081D0D"/>
<path d="M90.4329 31.3203C92.2569 31.3203 93.8649 30.9123 94.9449 29.9523C95.9289 29.0643 96.577 27.7203 96.577 25.8723V14.7843H92.8329V16.1043H92.785C92.0649 15.0723 90.9609 14.4243 89.3289 14.4243C86.2809 14.4243 84.1689 16.9683 84.1689 20.5683C84.1689 24.3363 86.7369 26.4003 89.4969 26.4003C90.9849 26.4003 91.9209 25.8003 92.6409 24.9843H92.7369V26.2083C92.7369 27.6963 92.0409 28.5603 90.3849 28.5603C89.0889 28.5603 88.4409 28.0083 88.2249 27.3603H84.4329C84.8169 29.9283 87.0489 31.3203 90.4329 31.3203ZM90.409 23.4963C88.945 23.4963 87.9849 22.2963 87.9849 20.4483C87.9849 18.5763 88.945 17.3763 90.409 17.3763C92.041 17.3763 92.9049 18.7683 92.9049 20.4243C92.9049 22.1523 92.113 23.4963 90.409 23.4963Z" fill="#081D0D"/>
<path d="M104.129 24.6737C102.425 24.6737 101.537 23.1857 101.537 20.9537C101.537 18.7217 102.425 17.2097 104.129 17.2097C105.833 17.2097 106.745 18.7217 106.745 20.9537C106.745 23.1857 105.833 24.6737 104.129 24.6737ZM104.153 27.4577C108.113 27.4577 110.705 24.6497 110.705 20.9537C110.705 17.2577 108.113 14.4497 104.153 14.4497C100.217 14.4497 97.5771 17.2577 97.5771 20.9537C97.5771 24.6497 100.217 27.4577 104.153 27.4577Z" fill="#081D0D"/>
<path d="M111.705 27.0726H115.617V14.7846H111.705V27.0726ZM111.705 13.0806H115.617V9.9126H111.705V13.0806Z" fill="#081D0D"/>
<path d="M116.617 31.1283H120.529V25.8003H120.577C121.345 26.8323 122.473 27.4563 124.057 27.4563C127.273 27.4563 129.409 24.9123 129.409 20.9283C129.409 17.2323 127.417 14.4243 124.153 14.4243C122.473 14.4243 121.273 15.1683 120.433 16.2723H120.361V14.7843H116.617V31.1283ZM123.049 24.4323C121.369 24.4323 120.409 23.0643 120.409 21.0723C120.409 19.0803 121.273 17.5683 122.977 17.5683C124.657 17.5683 125.449 18.9603 125.449 21.0723C125.449 23.1603 124.537 24.4323 123.049 24.4323Z" fill="#081D0D"/>
<path d="M136.385 27.4563C139.601 27.4563 141.977 26.0643 141.977 23.3763C141.977 20.2323 139.433 19.6803 137.273 19.3203C135.713 19.0323 134.321 18.9123 134.321 18.0483C134.321 17.2803 135.065 16.9203 136.025 16.9203C137.105 16.9203 137.849 17.2563 137.993 18.3603H141.593C141.401 15.9363 139.529 14.4243 136.049 14.4243C133.145 14.4243 130.745 15.7683 130.745 18.3603C130.745 21.2403 133.025 21.8163 135.161 22.1763C136.793 22.4643 138.281 22.5843 138.281 23.6883C138.281 24.4803 137.537 24.9123 136.361 24.9123C135.065 24.9123 134.249 24.3123 134.105 23.0883H130.409C130.529 25.8003 132.785 27.4563 136.385 27.4563Z" fill="#081D0D"/>
<path d="M147.297 27.4336C149.001 27.4336 150.081 26.7616 150.969 25.5616H151.041V27.0736H154.785V14.7856H150.873V21.6496C150.873 23.1136 150.057 24.1216 148.713 24.1216C147.465 24.1216 146.865 23.3776 146.865 22.0336V14.7856H142.977V22.8496C142.977 25.5856 144.465 27.4336 147.297 27.4336Z" fill="#081D0D"/>
<path d="M155.785 27.0723H159.697V20.1843C159.697 18.7203 160.417 17.6883 161.641 17.6883C162.817 17.6883 163.369 18.4563 163.369 19.7763V27.0723H167.281V20.1843C167.281 18.7203 167.977 17.6883 169.225 17.6883C170.401 17.6883 170.953 18.4563 170.953 19.7763V27.0723H174.865V19.0803C174.865 16.3203 173.473 14.4243 170.689 14.4243C169.105 14.4243 167.785 15.0963 166.825 16.5843H166.777C166.153 15.2643 164.929 14.4243 163.321 14.4243C161.545 14.4243 160.369 15.2643 159.601 16.5363H159.529V14.7843H155.785V27.0723Z" fill="#081D0D"/>
</svg>
