<svg width="174" height="41" viewBox="0 0 174 41" fill="none" xmlns="http://www.w3.org/2000/svg">
<path fill-rule="evenodd" clip-rule="evenodd" d="M25.7803 11.7458C24.1358 10.647 22.2024 10.0605 20.2246 10.0605V0.0605469C24.1802 0.0605469 28.047 1.23353 31.336 3.43116C34.625 5.62878 37.1884 8.75236 38.7022 12.4068C40.2159 16.0613 40.612 20.0827 39.8403 23.9623C39.0686 27.8419 37.1638 31.4056 34.3667 34.2026C31.5697 36.9997 28.006 38.9045 24.1264 39.6762C20.2468 40.4479 16.2254 40.0518 12.5709 38.5381C8.91641 37.0243 5.79284 34.4609 3.59522 31.1719C1.39759 27.8829 0.224609 24.0161 0.224609 20.0605H10.2246C10.2246 22.0383 10.8111 23.9717 11.9099 25.6162C13.0087 27.2607 14.5705 28.5424 16.3978 29.2993C18.225 30.0562 20.2357 30.2542 22.1755 29.8683C24.1153 29.4825 25.8971 28.5301 27.2957 27.1316C28.6942 25.733 29.6466 23.9512 30.0324 22.0114C30.4183 20.0716 30.2203 18.0609 29.4634 16.2337C28.7065 14.4064 27.4248 12.8446 25.7803 11.7458Z" fill="#FFD268"/>
<path fill-rule="evenodd" clip-rule="evenodd" d="M10.2246 0.0605522C10.2246 1.37377 9.96595 2.67413 9.4634 3.88739C8.96085 5.10064 8.22426 6.20303 7.29567 7.13162C6.36709 8.06021 5.2647 8.7968 4.05144 9.29935C2.83818 9.80189 1.53782 10.0606 0.22461 10.0606L0.224609 20.0606C2.85104 20.0606 5.45176 19.5433 7.87828 18.5382C10.3048 17.5331 12.5096 16.0599 14.3667 14.2027C16.2239 12.3456 17.6971 10.1408 18.7022 7.71422C19.7073 5.2877 20.2246 2.68698 20.2246 0.0605469L10.2246 0.0605522Z" fill="#FFD268"/>
<path d="M56.0889 26.5164H68.0409V22.9164H60.3369V9.35645H56.0889V26.5164Z" fill="#081D0D"/>
<path d="M75.593 24.1176C73.889 24.1176 73.001 22.6296 73.001 20.3976C73.001 18.1656 73.889 16.6536 75.593 16.6536C77.297 16.6536 78.209 18.1656 78.209 20.3976C78.209 22.6296 77.297 24.1176 75.593 24.1176ZM75.617 26.9016C79.577 26.9016 82.169 24.0936 82.169 20.3976C82.169 16.7016 79.577 13.8936 75.617 13.8936C71.681 13.8936 69.041 16.7016 69.041 20.3976C69.041 24.0936 71.681 26.9016 75.617 26.9016Z" fill="#081D0D"/>
<path d="M89.4329 30.7642C91.2569 30.7642 92.8649 30.3562 93.9449 29.3962C94.9289 28.5082 95.577 27.1642 95.577 25.3162V14.2282H91.8329V15.5482H91.785C91.0649 14.5162 89.9609 13.8682 88.3289 13.8682C85.2809 13.8682 83.1689 16.4122 83.1689 20.0122C83.1689 23.7802 85.7369 25.8442 88.4969 25.8442C89.9849 25.8442 90.9209 25.2442 91.6409 24.4282H91.7369V25.6522C91.7369 27.1402 91.0409 28.0042 89.3849 28.0042C88.0889 28.0042 87.4409 27.4522 87.2249 26.8042H83.4329C83.8169 29.3722 86.0489 30.7642 89.4329 30.7642ZM89.409 22.9402C87.945 22.9402 86.9849 21.7402 86.9849 19.8922C86.9849 18.0202 87.945 16.8202 89.409 16.8202C91.041 16.8202 91.9049 18.2122 91.9049 19.8682C91.9049 21.5962 91.113 22.9402 89.409 22.9402Z" fill="#081D0D"/>
<path d="M103.129 24.1176C101.425 24.1176 100.537 22.6296 100.537 20.3976C100.537 18.1656 101.425 16.6536 103.129 16.6536C104.833 16.6536 105.745 18.1656 105.745 20.3976C105.745 22.6296 104.833 24.1176 103.129 24.1176ZM103.153 26.9016C107.113 26.9016 109.705 24.0936 109.705 20.3976C109.705 16.7016 107.113 13.8936 103.153 13.8936C99.2171 13.8936 96.5771 16.7016 96.5771 20.3976C96.5771 24.0936 99.2171 26.9016 103.153 26.9016Z" fill="#081D0D"/>
<path d="M110.705 26.5164H114.617V14.2284H110.705V26.5164ZM110.705 12.5244H114.617V9.35645H110.705V12.5244Z" fill="#081D0D"/>
<path d="M115.617 30.5722H119.529V25.2442H119.577C120.345 26.2762 121.473 26.9002 123.057 26.9002C126.273 26.9002 128.409 24.3562 128.409 20.3722C128.409 16.6762 126.417 13.8682 123.153 13.8682C121.473 13.8682 120.273 14.6122 119.433 15.7162H119.361V14.2282H115.617V30.5722ZM122.049 23.8762C120.369 23.8762 119.409 22.5082 119.409 20.5162C119.409 18.5242 120.273 17.0122 121.977 17.0122C123.657 17.0122 124.449 18.4042 124.449 20.5162C124.449 22.6042 123.537 23.8762 122.049 23.8762Z" fill="#081D0D"/>
<path d="M135.385 26.9002C138.601 26.9002 140.977 25.5082 140.977 22.8202C140.977 19.6762 138.433 19.1242 136.273 18.7642C134.713 18.4762 133.321 18.3562 133.321 17.4922C133.321 16.7242 134.065 16.3642 135.025 16.3642C136.105 16.3642 136.849 16.7002 136.993 17.8042H140.593C140.401 15.3802 138.529 13.8682 135.049 13.8682C132.145 13.8682 129.745 15.2122 129.745 17.8042C129.745 20.6842 132.025 21.2602 134.161 21.6202C135.793 21.9082 137.281 22.0282 137.281 23.1322C137.281 23.9242 136.537 24.3562 135.361 24.3562C134.065 24.3562 133.249 23.7562 133.105 22.5322H129.409C129.529 25.2442 131.785 26.9002 135.385 26.9002Z" fill="#081D0D"/>
<path d="M146.297 26.8775C148.001 26.8775 149.081 26.2055 149.969 25.0055H150.041V26.5175H153.785V14.2295H149.873V21.0935C149.873 22.5575 149.057 23.5655 147.713 23.5655C146.465 23.5655 145.865 22.8215 145.865 21.4775V14.2295H141.977V22.2935C141.977 25.0295 143.465 26.8775 146.297 26.8775Z" fill="#081D0D"/>
<path d="M154.785 26.5162H158.697V19.6282C158.697 18.1642 159.417 17.1322 160.641 17.1322C161.817 17.1322 162.369 17.9002 162.369 19.2202V26.5162H166.281V19.6282C166.281 18.1642 166.977 17.1322 168.225 17.1322C169.401 17.1322 169.953 17.9002 169.953 19.2202V26.5162H173.865V18.5242C173.865 15.7642 172.473 13.8682 169.689 13.8682C168.105 13.8682 166.785 14.5402 165.825 16.0282H165.777C165.153 14.7082 163.929 13.8682 162.321 13.8682C160.545 13.8682 159.369 14.7082 158.601 15.9802H158.529V14.2282H154.785V26.5162Z" fill="#081D0D"/>
</svg>
